<?xml version="1.0" encoding="utf-8"?>
<!-- Generator: Adobe Illustrator 27.5.0, SVG Export Plug-In . SVG Version: 6.00 Build 0)  -->
<svg version="1.1" id="_x3C_Layer_x3E_" xmlns="http://www.w3.org/2000/svg" xmlns:xlink="http://www.w3.org/1999/xlink" x="0px"
	 y="0px" viewBox="0 0 3740 1360" style="enable-background:new 0 0 3740 1360;" xml:space="preserve">
<rect style="fill:#FFFFFF;" width="3740" height="1360"/>
<g>
	<path style="fill:#E9F3FE;" d="M340.025,1206.482c0,0-278.891-422.317,49.388-623.864
		c183.175-112.461,433.271,87.215,619.005-214.638c108.087-175.663,486.338-228.98,675.485,10.843
		c189.147,239.822,351.75,238.612,482.259,194.249c149.668-50.875,215.42-204.004,449.7-171.623
		c270.774,37.427,234.519,264.32,434.047,224.811c384.775-76.191,669.85,359.095,403.877,583.221L340.025,1206.482z"/>
	<g>
		<path style="fill:#FFB27D;" d="M543.842,472.039l0.031,5.629c0,0-1.533,17.603,20.143,20.173
			c21.676,2.578,38.097-6.864,37.51-20.447c-1.953-10.519-4.096-17.741-4.241-26.443c-0.053-3.234,0.168-6.666,0.771-10.541
			l-42.002-0.838l-12.37,2.021L543.842,472.039z"/>
		<path style="fill:#E8945B;" d="M543.683,441.592l0.159,30.447c4.463,2.074,9.496,3.341,15.141,3.341
			c19.303,0,31.781-14.156,38.302-24.43c-0.053-3.234,0.168-6.666,0.771-10.541l-42.002-0.838L543.683,441.592z"/>
		<path style="fill:#FFB27D;" d="M541.231,456.387c0,0,53.793,10.867,60.045-22.736c6.252-33.604,17.405-54.833-16.676-63.192
			c-34.082-8.359-43.159,3.219-47.975,13.927C531.81,395.094,527.398,452.694,541.231,456.387z"/>
		<path style="fill:#FFB27D;" d="M544.412,480.362c0,0-12.818,68.626-26.803,140.312c-15.192,77.92-52.184,152.392-55.39,155.308
			c-4.454,4.054-22.405-1.153-15.097-5.577c9.74-5.894,9.173-74.973,12.747-115.652c0.87-9.929,1.879-18.08,3.003-23.128
			c5.713-25.71,7.446-116.663,24.588-130.946C504.602,486.394,544.412,480.362,544.412,480.362z"/>
		<path style="fill:#739AF0;" d="M544.412,480.362c0,0-7.391,39.551-17.065,89.963c-3.066,15.997-6.367,33.081-9.737,50.349
			c-13.7,26.853-25.458,45.111-29.089,41.677c-7.408-6.995-20.416-7.858-28.65-7.599c0.87-9.929,1.879-18.08,3.003-23.128
			c0.451-2.03,0.876-4.469,1.289-7.242c4.792-32.352,7.51-110.551,23.299-123.704C504.602,486.394,544.412,480.362,544.412,480.362z
			"/>
		<path style="fill:#4A75CB;" d="M527.347,570.325c-3.066,15.997-6.367,33.081-9.737,50.349
			c-13.7,26.853-25.458,45.111-29.089,41.677c-7.408-6.995-20.416-7.858-28.65-7.599c0.87-9.929,1.879-18.08,3.003-23.128
			c0.451-2.03,0.876-4.469,1.289-7.242l41.075-99.155L527.347,570.325z"/>
		<path style="fill:#233862;" d="M580.889,1206.696c0,0,2.011-15.66,6.666-24.972c4.655-9.311,34.281-3.385,34.281-3.385
			s5.925,5.078,7.194,28.779L580.889,1206.696z"/>
		<path style="fill:#233862;" d="M479.953,1206.484c6.961-4.25,3-35.946,3-35.946s-32.438-25.95-36.896-6.083
			c-4.461,19.868-30.816,28.788-45.818,31.222c-10.357,1.679-13.563,7.415-14.557,10.808H479.953z"/>
		<path style="fill:#2B478B;" d="M547.141,975.94c-1.32,7.276-2.158,13.243-2.38,17.522
			c-3.016,58.817-49.511,193.301-57.827,196.437c-12.869,4.856-33.133-5.466-43.734-8.843c-4.393-1.403-7.357-5.835-6.38-10.329
			c23.025-105.853,31.488-258.276,34.566-348.519c1.556-45.454,9.358-76.853,9.358-76.853s113.4-30.256,114.073,8.017
			C595.414,787.242,557.254,920.069,547.141,975.94z"/>
		<path style="fill:#233862;" d="M547.141,975.94l-75.755-153.731c1.556-45.454,9.358-76.853,9.358-76.853
			s113.4-30.256,114.073,8.017C595.414,787.242,557.254,920.069,547.141,975.94z"/>
		<path style="fill:#2B478B;" d="M521.91,753.508l59.948,434.487c0,0,26.326,6.349,46.802,1.27c0,0,17.551-231.08,16.089-286.946
			c-1.463-55.865,12.596-149.486-3.209-159.811C625.735,732.183,521.91,753.508,521.91,753.508z"/>
		<path style="fill:#D86713;" d="M650.156,742.506c0.196,5.033-3.79,9.23-8.818,9.306l-94.47,1.441l-69.388,1.061
			c-3.25,0.057,7.022-25.939,7.23-195.441c0.052-37.823,58.608-78.522,59.687-78.522l0.014,0.013
			c0,5.447,8.582,15.503,21.807,16.366c15.692,1.028,34.947-6.78,34.947-15.819c0-0.103,1.821,1.872,4.755,6.138
			c7.833,11.414,23.616,39.246,33.69,87.696c7.955,38.263,4.895,89.417,10.621,155.421
			C650.651,734.932,650.035,739.166,650.156,742.506z"/>
		<path style="fill:#739AF0;" d="M646.671,752.339c0,0-12.558,5.625-36.046,10.493c-17.465,3.626-40.967,6.838-69.838,7.016
			c-45.918,0.292-63.307-15.534-63.307-15.534c-3.25,0.057,7.022-25.939,7.23-195.441c0.052-37.823,58.608-78.522,59.687-78.522
			l0.014,0.013c0,0-1.505,50.368,13.732,65.179c0,0,21.368-16.506,49.091-63.483c7.834,11.414,22.303,44.235,32.377,92.686
			c2.045,9.859,3.364,20.569,4.291,32.167c2.673,33.431,2.076,74.251,6.33,123.254c0.419,4.767-0.197,9.002-0.076,12.342
			C650.352,747.539,651.705,752.263,646.671,752.339z"/>
		<path style="fill:#4A75CB;" d="M646.671,752.339c0,0-12.558,5.625-36.046,10.493c-7.39-11.267-16.703-31.607-17.992-63.66
			c-2.183-54.202,49.307-124.005,49.307-124.005l1.963,31.743c2.673,33.431,2.076,74.251,6.33,123.254
			c0.419,4.767-0.197,9.002-0.076,12.342C650.352,747.539,651.705,752.263,646.671,752.339z"/>
		<path style="fill:#B64C41;" d="M651.534,654.887l-57.874-100.24c-3.212-5.563-10.328-7.471-15.892-4.258l-67.615,39.037
			c-5.564,3.213-7.471,10.328-4.259,15.893l57.874,100.24c3.213,5.564,10.328,7.471,15.892,4.258l67.614-39.037
			C652.84,667.566,654.747,660.451,651.534,654.887z"/>
		<path style="fill:#FFB27D;" d="M685.319,681.396c0,0-17.973,1.753-48.698-1.402c-22.168-2.279-50.977-7.116-84.459-17.008
			l9.79-16.715c0,0,40.02-1.765,69.33-6.057c7.3-1.066,13.935-2.292,19.121-3.682c6.374-1.708-25.261-81.882-41.22-129.03
			c-3.809-11.249-6.723-20.62-8.018-26.593c0,0,2.787,0.45,7.167,1.313c12.423,2.45,37.671,8.215,48.419,16.341
			C671.29,509.553,707.577,633.492,685.319,681.396z"/>
		<path style="fill:#FFB27D;" d="M562.307,646.269c0,0-13.559-12.697-18.797-12.697c-5.239,0-21.421,0.962-23.211,5.094
			c-4.222,9.74,6.309,18.61,10.622,20.303c4.315,1.693,15.054,3.807,19.676,4.23C555.22,663.62,566.621,661.081,562.307,646.269z"/>
		<path style="fill:#739AF0;" d="M685.319,681.396c0,0-17.973,1.753-48.698-1.402c1.695-8.349,3.27-24.651-5.339-39.779
			c7.3-1.066,13.935-2.292,19.121-3.682c6.374-1.708-25.261-81.882-41.22-129.03c-1.275-15.243-1.949-25.444-1.949-25.444
			l1.099,0.165c12.423,2.45,37.671,8.215,48.419,16.341C671.29,509.553,707.577,633.492,685.319,681.396z"/>
		<path style="fill:#4A75CB;" d="M558.141,545.541c0,0,42.746-18.833,43.381-20.314c0.635-1.482-2.116-12.909-5.079-16.294
			c0,0,20.526,1.904,21.796-0.636c1.27-2.539,1.693-23.7,1.693-23.7s-8.042-8.465-18.622-9.312c0,0-9.264,22.972-12.696,29.838
			C579.514,523.322,558.141,545.541,558.141,545.541z"/>
		<path style="fill:#4A75CB;" d="M547.983,508.297c0,0,2.751,22.008,10.157,37.244c0,0-22.324-15.554-24.229-20.632
			c-1.905-5.079,5.396-14.919,5.396-14.919s-13.331-0.317-13.649-4.761c-0.317-4.444,4.127-21.902,4.127-21.902
			s10.901-8.265,14.075-7.947L547.983,508.297z"/>
		<path style="fill:#233862;" d="M526.166,359.42c0,0,15-1.154,32.694-8.847c14.359-6.244,32.477,0.632,38.358,3.73
			c-0.157-0.948-0.536-2.241-1.434-3.538c0,0,2.641,1.871,3.03,4.489c0.271,0.2,0.394,0.339,0.323,0.385
			c0,0,2.993-0.547,4.916,0.317c0,0-1.346-0.191-1.827,0.674c-0.05,0.092-0.127,0.169-0.215,0.238
			c22.401,10.823,24.47,46.228,17.262,54.419c-8.674,9.855-19.073,32.051-19.073,32.051s-3.793-5.243-2.216-13.916
			c1.577-8.674-5.913-8.674-15.375-12.616c-9.461-3.941-1.577-14.98-9.856-21.682c-8.279-6.703-38.635-2.76-38.24-7.885
			C523.247,383.135,526.166,360.573,526.166,359.42z"/>
		<path style="fill:#ED6058;" d="M578.86,622.64c-3.115,0-5.641,2.526-5.641,5.642c0,3.115,2.525,5.641,5.641,5.641
			c3.116,0,5.642-2.525,5.642-5.641C584.502,625.166,581.977,622.64,578.86,622.64z"/>
		<g>
			<g>
				<path style="fill:#D86713;" d="M451.865,1185.724c3.199,7.478-0.268,16.133-7.746,19.333c-7.479,3.2-16.134-0.269-19.333-7.746
					c-3.2-7.478,0.268-16.133,7.745-19.333C440.009,1174.777,448.665,1178.245,451.865,1185.724z"/>
				<path style="fill:#F1A34F;" d="M454.475,1185.724c3.2,7.478-0.268,16.133-7.745,19.333c-7.477,3.2-16.134-0.269-19.333-7.746
					c-3.201-7.478,0.268-16.133,7.745-19.333S451.275,1178.245,454.475,1185.724z"/>
			</g>
			<g>
				<path style="fill:#D86713;" d="M367.881,1185.724c3.2,7.478-0.269,16.133-7.746,19.333c-7.478,3.2-16.133-0.269-19.333-7.746
					c-3.2-7.478,0.268-16.133,7.746-19.333C356.025,1174.777,364.681,1178.245,367.881,1185.724z"/>
				<path style="fill:#F1A34F;" d="M370.491,1185.724c3.199,7.478-0.269,16.133-7.746,19.333c-7.478,3.2-16.134-0.269-19.334-7.746
					c-3.199-7.478,0.269-16.133,7.746-19.333C358.635,1174.777,367.291,1178.245,370.491,1185.724z"/>
			</g>
			<g>
				<path style="fill:#D86713;" d="M463.443,941.768l-6.224-1.264c8.418-41.473,24.187-122.828,23.62-133.889
					c-0.357-6.971-2.494-12.006-6.352-14.965c-6.187-4.746-15.09-2.91-15.179-2.893l-0.342,0.056l-25.36,2.665
					c-30.027,0.756-32.383,25.59-32.469,26.646l-0.042,0.324l-21.161,116.068l-6.247-1.14l21.136-115.927
					c0.126-1.287,1.016-8.475,5.73-15.769c4.703-7.275,14.205-16.043,32.765-16.55l24.829-2.619
					c1.618-0.317,12.107-2.075,20.156,4.062c5.432,4.141,8.419,10.773,8.877,19.714C487.931,820.907,464.443,936.84,463.443,941.768
					z"/>
			</g>
			<path style="fill:#D86713;" d="M511.072,934.731l-64.128-12.819l-12.541,251.512l-118.641,10.488l20.942,7.521
				c2.118,0.761,4.354,1.139,6.604,1.115l112.978-1.156c1.96,0.021,3.851,0.001,5.667-0.058l0.185-0.002l0.003-0.004
				c44.202-1.507,46.345-25.602,46.345-25.602s14.311-161.787,17.574-190.621C529.771,942.338,511.072,934.731,511.072,934.731z"/>
			<path style="fill:#F1A34F;" d="M482.496,966.416l-17.247,181.185c-0.702,7.331-3.302,14.063-7.296,19.715
				c-7.393,10.476-19.563,17.263-33.208,17.347l-59.476,0.369l-1.471,0.014l-37.249,0.23c-3.749,0.023-7.365-0.455-10.792-1.362
				c-0.805-0.211-1.595-0.446-2.377-0.704c-12.894-4.277-22.814-14.77-26.489-27.678c-1.564-5.494-2.001-11.422-1.055-17.496
				l27.01-173.359c2.885-18.485,17.936-32.67,36.561-34.451l10.505-1.006l2.505-0.236l0.006-0.002l2.105-0.199l35.116-3.358
				l4.31-0.409l33.888-3.236c5.318-0.506,10.463,0.021,15.252,1.401c0.314,0.091,0.627,0.183,0.94,0.286l1.959,0.67
				C472.709,930.352,484.322,947.225,482.496,966.416z"/>
			<path style="opacity:0.4;fill:#D86713;" d="M457.953,1167.315c-7.393,10.476-19.563,17.263-33.208,17.347l-59.476,0.369
				l-1.471,0.014l-37.249,0.23c-3.749,0.023-7.365-0.455-10.792-1.362c-0.805-0.211-1.595-0.446-2.377-0.704
				c-12.894-4.277-27.759-19.887-27.97-36.447c0,0,125.814-1.646,152.111,2.415C451.087,1151.271,455.146,1160.757,457.953,1167.315
				z"/>
			<g>
				<g>
					<path style="fill:#D86713;" d="M364.529,928.781c-0.261,0.161-27.847,16.969-31.474,31.738
						c-3.727,15.18-28.632,192.086-28.881,193.871c-0.018,0.143-0.703,17.239,13.473,29.976l-1.89-0.453
						c-0.805-0.211-1.595-0.446-2.377-0.704c-13.314-13.22-11.522-28.455-11.431-29.123c1.024-7.305,25.177-178.812,28.925-194.098
						c3.289-13.393,22.737-26.742,29.038-30.769l2.505-0.236l0.006-0.002L364.529,928.781z"/>
				</g>
				<g>
					<path style="fill:#D86713;" d="M403.955,925.014c-3.972,2.682-19.116,14.196-22.349,35.449
						c-3.79,24.927-18.597,205.982-18.745,207.804l-0.01,0.133l-0.04,0.121c-0.028,0.092-2.142,9.864,3.951,16.502l-1.493,0.009
						l-1.471,0.014c-5.834-7.115-3.525-15.854-3.166-17.081c0.461-5.599,14.996-183.108,18.757-207.834
						c2.786-18.315,14.062-29.7,20.256-34.707L403.955,925.014z"/>
				</g>
				<g>
					<path style="fill:#D86713;" d="M455.993,924.137c-0.117,0.068-5.847,3.305-10.784,8.908
						c-4.935,5.608-10.303,14.24-12.152,26.406c-3.789,24.914-15.528,205.366-15.648,207.182l-0.006,0.143l-0.043,0.128
						c-0.028,0.092-0.546,11.132,5.547,17.771l-3.747,0.023c-4.657-6.066-4.368-17.036-3.98-18.338
						c0.375-5.769,11.897-182.52,15.658-207.246c3.537-23.251,18.973-33.914,22.257-35.935c0.314,0.091,0.627,0.183,0.94,0.286
						L455.993,924.137z"/>
				</g>
			</g>
		</g>
		<path style="fill:#FFB27D;" d="M447.123,770.404c0,0-20.001,7.309-20.578,22.117c-0.301,7.725,0.048,16.79,9.232,15.77
			c6.923-0.77,3.847-8.462,9.616-12.308c5.768-3.847,17.692-17.693,18.077-24.232C463.854,765.212,447.123,770.404,447.123,770.404z
			"/>
	</g>
	<g>
		<path style="fill:#2B478B;" d="M1004.164,688.576c-6.754,0-12.718-1.353-17.896-3.941c-64.377-31.961-4.614-251.54-4.614-251.54
			s3.039-9.907,14.745-15.195c6.076-2.703,14.518-4.165,26.221-2.252c33.878,5.627,40.406,19.696,41.757,27.576
			C1065.84,451.214,1096.453,688.125,1004.164,688.576z"/>
		<path style="fill:#233862;" d="M986.269,684.635c-64.377-31.961-4.614-251.54-4.614-251.54s3.039-9.907,14.745-15.195
			c24.872,6.529,30.049,18.345,31.399,25.324C1029.037,450.653,1055.374,654.025,986.269,684.635z"/>
		<g>
			<path style="fill:#233862;" d="M1118.753,1137.171c0,0,14.668,13.596,11.806,23.255c-2.861,9.66-16.099,16.1-17.888,27.905
				c-1.788,11.807-8.944,18.246-15.384,18.246s-30.701,0-30.701,0s-4.74-8.309,6.708-10.813s15.765-16.378,15.05-29.257
				c-0.716-12.879,1.072-30.052,1.072-30.052l24.328-5.725L1118.753,1137.171z"/>
			<path style="fill:#233862;" d="M938.799,1174.238c0,0,3.578,28.621-2.861,31.84c-6.44,3.221-83.358,2.147-83.358,2.147
				s0-9.66,13.237-11.807c13.236-2.146,36.491-10.018,40.427-27.548C910.179,1151.341,938.799,1174.238,938.799,1174.238z"/>
			<path style="fill:#2B478B;" d="M869.22,737.193c0,0,4.347,54.233,9.456,119.425c6.943,88.557,15.295,197.334,16.121,217.94
				c1.428,35.784,7.158,93.021,7.158,93.021s13.588,13.599,40.785,7.867c0,0,24.234-81.708,31.156-168.161
				c0.107-1.417,0.216-2.845,0.323-4.272c6.439-88.009,16.452-273.332,16.452-273.332L869.22,737.193z"/>
			<path style="fill:#233862;" d="M869.22,737.193c0,0,4.347,54.233,9.456,119.425l95.221,150.668
				c0.107-1.417,0.216-2.845,0.323-4.272c6.439-88.009,16.452-273.332,16.452-273.332L869.22,737.193z"/>
			<path style="fill:#2B478B;" d="M889.07,743.635c0,0,78.35,196.41,129.867,288.713c51.518,92.302,67.617,118.061,67.617,118.061
				s29.516-11.806,32.198-19.855c0,0-19.7-178.194-54.201-221.633c-19.494-24.545-42.395-98.205-43.468-123.964
				c-1.073-25.759-6.977-76.74-6.977-76.74L889.07,743.635z"/>
		</g>
		<path style="fill:#AB7041;" d="M819.43,681.574l-10.609,12.64c-2.066,2.462-4.814,4.196-7.831,5.309
			c-6.273,2.311-16.613,8.78-12.136,25.737c0,0,3.377,9.767,9.657,6.678c6.28-3.091,3.187-2.83,12.187-6.989
			c6.75-3.119,11.367-8.393,12.405-13.929c0.884-4.715,4.28-8.582,8.257-11.265l12.866-8.685L819.43,681.574z"/>
		<path style="fill:#9C5F33;" d="M929.255,440.455c-3.484-20.568-3.591-32.759-3.591-32.759l39.752-32.037
			c-1.477,44.052,26.752,65.234,26.752,65.234s-52.975,26.076-83.594,16.418C908.574,457.311,916.113,447.677,929.255,440.455z"/>
		<path style="fill:#AB7041;" d="M916.3,406.969c0,0,50.572,8.401,55.319-23.173c4.747-31.574,14.472-51.755-17.616-58.453
			c-32.088-6.699-40.188,4.403-44.336,14.557C905.519,350.053,903.268,403.969,916.3,406.969z"/>
		<path style="fill:#963333;" d="M815.144,701.819c-6.761-6.936-11.78-15.968-11.78-15.968s57.46-71.39,62.13-78.792
			c4.671-7.403,39.567-126.148,39.567-126.148l88.247-17.876c0,0-73.659,151.967-85.862,170.492
			c-20.165,30.613-80.491,76.178-80.491,76.178S820.453,707.268,815.144,701.819z"/>
		<path style="fill:#B64C41;" d="M1020.032,718.29c0.112,1.803-1.912,3.825-4.275,5.402c-1.914,1.352-4.165,2.363-5.515,3.039
			c-6.754,3.039-13.394,5.737-19.921,8.106c-15.644,5.847-31.063,9.788-47.833,11.364c-17.896,1.803-37.817,0-53.01-1.462
			c-8.554-1.016-15.533-1.802-19.809-1.802h-0.564c-1.239,0-2.362-0.45-3.265-1.236c-0.676-0.451-1.238-27.236-0.899-63.254
			c0-5.066,0.111-10.244,0.111-15.646c0-1.687,0-3.6,0.226-5.287v-0.565c0.112-16.882,0.676-34.775,1.465-52.443v-0.341
			c1.687-39.276,4.726-77.097,10.015-98.139c6.078-24.652,20.26-40.859,33.091-52.9l10.58-9.343
			c0.898,0.227,1.799,0.342,2.701,0.451c9.677,1.577,19.92,0.676,30.274-4.391c12.043-5.963,25.323-12.491,27.461-10.914
			c0.226,0.226,0.563,0.45,0.788,0.676c3.714,2.924,7.091,6.639,10.129,11.029c0.226,0.11,0.226,0.11,0.226,0.226
			c0.112,0,0.112,0,0.112,0c2.476,3.6,4.84,7.65,6.979,12.156c3.488,7.089,6.415,15.305,9.003,24.422
			c6.866,24.647,10.243,55.708,10.13,88.912c0,8.44-0.225,16.992-0.788,25.658c-0.112,2.479-0.225,4.841-0.339,7.205
			c-1.01,21.498-0.899,41.419-0.336,58.861v0.562c0.563,17.673,1.576,32.643,2.363,43.782
			C1019.583,709.173,1019.92,714.575,1020.032,718.29z"/>
		<path style="fill:#963333;" d="M1019.148,702.447c-1.608-23.463-4.412-63.821-1.679-110.38c0.492-8.67,0.75-17.269,0.781-25.736
			c-10.475-25.408-19.035-43.833-19.035-43.833h-26.399C972.816,522.498,953.461,654.7,1019.148,702.447z"/>
		<path style="fill:#2B478B;" d="M971.66,380.758c0,0-5.19-0.867-4.353-8.017c0.837-7.148,0.827-16.491-4.984-14.75
			c-5.813,1.742-6.1,6.395-8.489,3.678c-2.389-2.718-2.432-14.166-19.725-14.963c-17.293-0.797-24.32,5.222-32.361,1.687
			c-8.042-3.535-8.467-15.707-8.467-15.707s2.287,4.346,5.742,5.729c0,0-13.416-18.35,2.116-30.933
			c15.533-12.583,31.37-4.346,40.36-3.802c19.806,1.199,32.599,2.388,39.069,15.402C987.039,332.096,984.369,368.23,971.66,380.758z
			"/>
		<g>
			<path style="fill:#1C468A;" d="M1234.516,1179.761c-4.086,9.489,0.383,20.455,9.979,24.493s20.688-0.38,24.772-9.869
				s-0.383-20.455-9.979-24.493C1249.691,1165.854,1238.6,1170.272,1234.516,1179.761z"/>
			<path style="fill:#1C468A;" d="M1099.047,1180.009c-4.086,9.489,0.383,20.455,9.979,24.493
				c9.596,4.039,20.688-0.381,24.772-9.869c4.085-9.49-0.383-20.455-9.979-24.494
				C1114.223,1166.101,1103.131,1170.52,1099.047,1180.009z"/>
			<path style="fill:#4A82D3;" d="M1273.563,1177.37l-26.836,9.589c-2.713,0.97-5.58,1.454-8.466,1.431l-152.378-1.242
				l-16.688-27.237L1273.563,1177.37z"/>
			<g>
				<path style="fill:#4A82D3;" d="M1186.453,876.326l-42.762-104.54l-0.054-0.2c-0.26-0.938-6.928-23.392-45.293-28.341
					l-0.177-0.026l-31.558-5.818c-4.078-1.054-15.857-2.813-21.243,1.698c-2.389,2.001-3.351,5.127-2.943,9.558
					c0.809,8.772,29.265,76.555,48.192,119.975l-6.029,2.57c-4.862-11.154-47.539-109.333-48.701-121.955
					c-0.609-6.607,1.157-11.692,5.25-15.113c8.8-7.357,25.275-3.482,27.025-3.044l31.122,5.729
					c41.312,5.361,49.799,30.051,50.642,32.887l42.616,104.188L1186.453,876.326z"/>
			</g>
			<path style="fill:#4A82D3;" d="M1104.723,845.508l-82.199,16.416c0,0-23.961,9.691-19.126,51.229
				c4.255,36.55,22.993,241.646,22.993,241.646s3.91,42.679,96.093,30.117L1104.723,845.508z"/>
			<path style="fill:#739AF0;" d="M1059.242,902.025l22.551,229.682c0.918,9.293,4.267,17.822,9.403,24.979
				c9.505,13.262,25.125,21.838,42.623,21.91l76.265,0.317l1.887,0.013l47.764,0.199c4.807,0.021,9.443-0.595,13.835-1.754
				c1.03-0.27,2.044-0.57,3.046-0.898c16.523-5.455,29.219-18.784,33.9-35.16c1.992-6.971,2.539-14.486,1.311-22.186
				l-35.051-219.735c-3.744-23.432-23.077-41.378-46.964-43.591l-13.474-1.247l-3.213-0.293l-0.006-0.003l-2.701-0.247l-45.037-4.17
				l-5.527-0.509l-43.462-4.017c-6.82-0.628-13.415,0.053-19.553,1.814c-0.402,0.116-0.805,0.233-1.205,0.366l-2.51,0.853
				C1071.705,856.274,1056.854,877.695,1059.242,902.025z"/>
			<path style="fill:#6793E7;" d="M1091.196,1156.686c9.505,13.262,25.125,21.838,42.623,21.91l76.265,0.317l1.887,0.013
				l47.764,0.199c4.807,0.021,9.443-0.595,13.835-1.754c1.03-0.27,2.044-0.57,3.046-0.898c16.523-5.455,35.547-25.285,35.778-46.282
				c0,0-161.333-1.771-195.043,3.445C1099.961,1136.325,1094.779,1148.362,1091.196,1156.686z"/>
			<g>
				<g>
					<path style="fill:#4A82D3;" d="M1210.418,854.011c0.336,0.203,35.748,21.444,40.434,40.163
						c4.814,19.234,37.176,243.475,37.5,245.736c0.023,0.181,0.943,21.856-17.205,38.04l2.423-0.579
						c1.03-0.27,2.044-0.57,3.046-0.898c17.042-16.795,14.707-36.108,14.588-36.955c-1.332-9.258-32.715-226.652-37.557-246.024
						c-4.249-16.972-29.219-33.85-37.309-38.94l-3.213-0.293l-0.006-0.003L1210.418,854.011z"/>
				</g>
				<g>
					<path style="fill:#4A82D3;" d="M1159.854,849.332c5.1,3.391,24.546,17.951,28.742,44.891
						c4.92,31.596,24.341,261.121,24.535,263.429l0.015,0.168l0.051,0.153c0.036,0.116,2.771,12.501-5.026,20.933l1.914,0.008
						l1.887,0.013c7.463-9.035,4.482-20.108,4.018-21.665c-0.604-7.096-19.668-232.126-24.55-263.466
						c-3.618-23.216-18.104-37.622-26.058-43.954L1159.854,849.332z"/>
				</g>
				<g>
					<path style="fill:#4A82D3;" d="M1093.125,848.352c0.15,0.087,7.504,4.176,13.849,11.267c6.342,7.1,13.247,18.029,15.646,33.451
						c4.919,31.58,20.406,260.346,20.564,262.646l0.008,0.181l0.056,0.163c0.036,0.115,0.727,14.113-7.07,22.545l4.805,0.02
						c5.957-7.702,5.562-21.611,5.059-23.261c-0.495-7.313-15.694-231.389-20.575-262.729
						c-4.592-29.471-24.409-42.952-28.626-45.507c-0.402,0.116-0.805,0.233-1.205,0.366L1093.125,848.352z"/>
				</g>
			</g>
		</g>
		<path style="fill:#AB7041;" d="M1062.304,689.838l9.835,23.163c1.187,2.797,1.087,5.917-0.011,8.751
			c-2.417,6.234-4.406,18.267,11.271,26.127c0,0,9.56,3.93,11.396-2.824s-0.015-4.261,2.821-13.762
			c2.48-8.314,0.841-16.391-4.183-20.518c-1.771-1.454-2.595-3.775-2.834-6.054l-1.55-14.751L1062.304,689.838z"/>
		<path style="fill:#B64C41;" d="M1083.798,713.027c-9.507,1.854-19.812,1.103-19.812,1.103s-28.225-87.186-31.856-95.15
			c-3.633-7.964-83.832-102.229-83.832-102.229l33.409-83.612c0,0,86.746,144.896,95.553,165.257
			c14.556,33.645,19.606,109.076,19.606,109.076S1091.265,711.572,1083.798,713.027z"/>
		<path style="fill:#233862;" d="M1016.769,658.075v0.562c-14.406-3.374-26.674-10.014-37.253-18.795
			c-19.695-16.091-33.089-39.617-41.531-64.265c-13.056-38.375-14.067-79.569-7.428-99.831c0.901-2.583,1.913-4.951,3.038-6.749
			c2.702-4.506,5.74-8.331,9.23-11.479c11.029-10.47,25.098-14.52,35.451-15.982c3.04-0.45,5.74-0.565,7.991-0.676
			c3.151-0.115,5.178,0,5.74,0c0.112,0,0.112,0,0.112,0c2.476,3.6,4.84,7.65,6.979,12.156c-2.025-0.226-3.939-0.226-5.739-0.226
			c-7.992-0.225-14.857,0.786-20.598,2.815c-9.904,3.148-16.882,9.116-21.721,15.98c-13.956,19.58-10.917,47.608-10.917,47.608
			c1.124,14.745,3.376,27.912,6.303,39.502c6.64,26.565,17.106,45.47,27.911,58.753c20.145,24.982,42.142,30.406,42.142,30.406
			L1016.769,658.075z"/>
	</g>
	<g>
		<path style="fill:#D9935C;" d="M1470.027,605.858c-0.778-1.95-10.518-30.779-17.919-34.675
			c-7.402-3.896-21.038-8.181-24.154-6.623c-3.116,1.558-8.96,23.375,0,34.672c8.96,11.297,31.94,22.206,31.94,22.206
			L1470.027,605.858z"/>
		<path style="fill:#4A75CB;" d="M1581.979,691.498c-51.424,1.567-124.472-65.22-124.472-65.22s2.384-9.268,5.852-13.931
			c2.343-3.15,6.669-6.489,6.669-6.489c18.699,12.46,84.932,24.148,84.932,24.148
			C1578.474,632.803,1624.951,690.201,1581.979,691.498z"/>
		<g>
			<path style="fill:#2B478B;" d="M1472.806,593.393l-22.906,7.627c-0.87,0.29-1.812-0.181-2.103-1.053l-18.747-56.303
				c-0.29-0.871,0.181-1.813,1.052-2.103l22.906-7.627c0.871-0.291,1.813,0.181,2.103,1.052l18.748,56.304
				C1474.148,592.161,1473.677,593.102,1472.806,593.393z"/>
			<path style="fill:#233862;" d="M1466.622,595.451l-20.467,6.815c-1.544,0.514-3.214-0.322-3.728-1.866l-17.936-53.863
				c-0.516-1.545,0.32-3.215,1.865-3.729l20.467-6.814c1.545-0.515,3.214,0.321,3.729,1.865l17.936,53.864
				C1469.002,593.269,1468.167,594.937,1466.622,595.451z"/>
		</g>
		<path style="fill:#D9935C;" d="M1426.201,567.482c0,0,5.844-12.076,16.557-7.207c10.713,4.87,6.039,23.18-0.195,29.607
			c-6.232,6.428-7.985,9.35-7.985,9.35L1426.201,567.482z"/>
		<path style="fill:#233862;" d="M1626.961,1196.188c-0.422,4.584-1.387,8.494-3.346,9.751h-78.547
			c0.279-1.998,2.006-8.771,12.601-10.261c10.077-1.421,26.378-6.215,34.381-16.66c1.897-2.475,3.333-5.263,4.107-8.404
			c4.04-16.374,30.45,5.678,30.45,5.678s0.299,2.863,0.483,6.82C1627.281,1186.974,1627.362,1191.877,1626.961,1196.188z"/>
		<path style="fill:#233862;" d="M1696.409,1205.938h-81.886c1.245-2.509,4.706-7.765,12.438-9.751
			c0.816-0.21,1.688-0.38,2.604-0.51c8.786-1.237,22.304-5.046,30.934-12.927c3.61-3.298,6.364-7.304,7.554-12.138
			c4.04-16.374,30.451,5.678,30.451,5.678s0.272,2.618,0.47,6.331C1699.388,1190.143,1699.496,1202.165,1696.409,1205.938z"/>
		<path style="fill:#2B478B;" d="M1661.121,762.812c0,0-0.063,2.959-0.179,8.279c-0.739,34.305-3.672,166.941-6.452,240.889
			c-0.117,2.691-0.215,5.294-0.313,7.825c-0.054,1.337-0.107,2.683-0.16,4.011c-1.667,35.748-6.516,70.756-11.417,98.75
			c-6.248,35.704-12.593,60.018-12.593,60.018c-23.818,4.824-39.256-4.231-39.256-4.231s-6.422-55.411-8.863-88.949
			c-0.803-10.882-4.725-48.012-9.644-93.181c-3.814-34.928-8.227-74.669-12.273-110.81c-0.214-1.925-0.418-3.85-0.642-5.748
			c-6.533-58.432-11.942-106.023-11.942-106.023l42.112-4.012L1661.121,762.812z"/>
		<path style="fill:#233862;" d="M1642.601,1122.565l-70.355-126.344c-3.814-34.928-8.227-74.669-12.273-110.81
			c-0.214-1.925-0.418-3.85-0.642-5.748c-6.533-58.432-11.942-106.023-11.942-106.023l42.112-4.012l71.442,1.462L1642.601,1122.565z
			"/>
		<path style="fill:#2B478B;" d="M1555.17,773.955c0,0,39.365,194.59,71.44,288.506s32.475,120.007,32.475,120.007
			s29.433,6.38,42.399-1.029c0,0,7.41-178.036-11.999-225.321c-12.837-31.273-22.657-97.836-19.319-121.809
			c3.336-23.975,6.451-72.057,6.451-72.057L1555.17,773.955z"/>
		<path style="fill:#D9935C;" d="M1639.271,473.799l-32.638,31.292c-8.892-7.43-15.646-16.097-20.823-24.313
			c-5.063-8.1-8.553-15.64-10.916-20.932c-1.801-3.94,18.121-16.547,29.375-24.538c3.489-2.588,6.19-4.61,7.09-5.852
			c0,0,0.902,2.253,2.363,5.627c2.478,5.402,6.416,13.508,10.244,18.8C1633.645,467.277,1639.271,473.799,1639.271,473.799z"/>
		<path style="fill:#739AF0;" d="M1666.147,784.362c-9.305,6.586-23.966,8.966-40.115,8.716
			c-18.858-0.303-39.732-4.197-56.417-9.189c-8.975-2.683-16.729-5.678-22.326-8.592c-24.928-13.003-21.39-30.303-20.793-95.07
			c0.606-66.103,41.287-151.552,48.613-165.856c13.04-25.463,71.537-16.066,71.537-16.066c12.834,6.149,17.397,26.658,18.646,53.449
			c1.39,29.758-1.311,67.28-1.311,101.495c0,28.289,5.339,53.298,9.226,74.037C1678.241,754.22,1680.835,773.951,1666.147,784.362z"
			/>
		<path style="fill:#4A75CB;" d="M1673.207,727.286c-11.258,23.725-33.423,50.418-47.175,65.792
			c-18.858-0.303-39.732-4.197-56.417-9.189c-7.023-16.81-10.098-44.866-3.609-91.185c4.947-35.311,40.998-177.359,40.998-177.359
			c29.107-3.797,47.21,12.059,58.288,36.408c1.39,29.758-1.311,67.28-1.311,101.495
			C1663.981,681.538,1669.32,706.547,1673.207,727.286z"/>
		<path style="fill:#4A75CB;" d="M1638.641,461.132c0,0,9.975,31.535,8.006,37.173c0,0-55.286,6.464-77.241,27.869
			c0,0,8.312-29.915,17.094-37.6C1595.281,480.891,1638.641,461.132,1638.641,461.132z"/>
		<g>
			<path style="fill:#D37129;" d="M1636.907,876.949c0.214-8.243-3.88-15.912-10.787-20.415
				c-11.203-7.304-30.298-15.924-56.553-14.257c-44.315,2.815-54.163,27.434-55.57,46.426
				c-1.407,18.992-16.179,46.427-19.696,67.529c-3.518,21.103-9.394,74.786,21.996,79s136.596,0,136.596,0s24.512-28.73,0-83.924
				C1638.354,918.568,1636.533,891.322,1636.907,876.949z"/>
			<g>
				<g>
					<path style="fill:#D37129;" d="M1623.311,848.565l-8.396-1.118c0-0.015,0.34-5.906-2.627-10.336
						c-2.286-3.398-6.078-5.305-11.266-5.62c-4.913-0.315-8.814,1.09-11.332,4.2c-3.551,4.372-3.638,11.024-3.638,11.097
						l-8.441,0.043c0-0.459,0.011-11.297,6.177-19.009c4.242-5.333,10.188-7.612,17.641-7.34c7.639,0.487,13.464,3.698,17.321,9.548
						C1624.069,838.1,1623.344,848.148,1623.311,848.565z"/>
				</g>
				<g>
					<path style="fill:#F1A34F;" d="M1674.332,1035.193c0,0-105.232,4.275-136.633,0c-31.4-4.166-25.548-57.852-21.948-79.009
						c3.489-21.048,18.235-48.51,19.696-67.529c0.225-3.605,0.788-7.54,1.915-11.37c4.501-16.207,17.894-32.748,53.573-35.001
						c26.334-1.688,45.355,6.979,56.61,14.294c6.864,4.5,11.029,12.156,10.806,20.371c0,1.688-0.113,3.716-0.113,5.738
						c0.227,15.42,3.264,39.958,16.094,68.655C1698.867,1006.49,1674.332,1035.193,1674.332,1035.193z"/>
					<path style="opacity:0.4;fill:#D86713;" d="M1529.736,963.97h62.839c0,0,4.22,45.957-25.792,47.363
						C1536.77,1012.74,1528.798,993.514,1529.736,963.97z"/>
					<path style="fill:#D37129;" d="M1529.736,963.97c0,0,10.785,16.413,30.481,15.944c19.696-0.469,32.357-15.944,32.357-15.944
						H1529.736z"/>
					<path style="opacity:0.4;fill:#D86713;" d="M1605.33,963.97h62.84c0,0,4.22,45.957-25.793,47.363
						C1612.364,1012.74,1604.393,993.514,1605.33,963.97z"/>
					<path style="fill:#D37129;" d="M1605.33,963.97c0,0,10.785,16.413,30.481,15.944c19.696-0.469,32.358-15.944,32.358-15.944
						H1605.33z"/>
					<path style="opacity:0.4;fill:#D86713;" d="M1658.352,876.949c0,1.688-0.113,3.716-0.113,5.738
						c-11.592,14.519-31.288,31.967-57.738,31.066c-45.019-1.352-63.138-36.469-63.138-36.469
						c4.501-16.207,17.894-32.748,53.573-35.001c26.334-1.688,45.355,6.979,56.61,14.294
						C1654.41,861.078,1658.575,868.734,1658.352,876.949z"/>
					<path style="fill:#D86713;" d="M1599.066,922.926L1599.066,922.926c-2.838,0-5.159-2.322-5.159-5.159v-4.69
						c0-2.837,2.321-5.158,5.159-5.158l0,0c2.837,0,5.158,2.321,5.158,5.158v4.69
						C1604.225,920.604,1601.903,922.926,1599.066,922.926z"/>
				</g>
			</g>
		</g>
		<path style="fill:#DA935B;" d="M1591.828,790.682c0,0-15.225,29.36-7.613,40.778c7.613,11.419,34.799-3.262,36.974-9.787
			c2.175-6.525,0-38.06,0-38.06L1591.828,790.682z"/>
		<path style="fill:#739AF0;" d="M1656.948,561.024c0,0-5.665,80.796-5.593,114.221c0.072,33.426-26.526,122.331-26.526,122.331
			s-17.603,1.411-24.511,0.52c-7.957-1.027-12.699-4.68-12.699-4.68s5.842-105.039-5.305-145.299
			c-11.146-40.26-11.732-121.122-11.732-121.122s6.191-17.456,43.254-11.947C1657.806,521.584,1656.948,561.024,1656.948,561.024z"
			/>
		<path style="fill:#CB8757;" d="M1613.723,435.084c0,0-6.751,35.902-27.912,45.694c-5.063-8.1-8.553-15.64-10.916-20.932
			c-1.801-3.94,18.121-16.547,29.375-24.538C1609.898,435.199,1613.723,435.084,1613.723,435.084z"/>
		<path style="fill:#D9935C;" d="M1568.564,469.925c0,0,50.723-8.928,44.678-40.429c-6.045-31.502-3.57-53.871-36.211-49.504
			c-32.641,4.368-36.608,17.593-37.147,28.598C1539.344,419.596,1555.214,471.435,1568.564,469.925z"/>
		<path style="fill:#233862;" d="M1615.604,439.09c0,0-4.43-3.996,8.931-19.465c6.889-7.976,13.095-15.516,7.335-31.021
			c-5.761-15.505-3.54-26.976-25.308-30.218c-21.767-3.242-22.455-13.653-34.068-11.791c-11.611,1.861-23.895,16.685-33.842,18.329
			c-9.947,1.644-24.566,50.311-2.641,52.177c0,0,8.773-2.845,13.402-8.872c4.631-6.027,25.387-18.236,30.546-12.477
			C1585.12,401.513,1603.889,437.577,1615.604,439.09z"/>
	</g>
	<g id="man_1_">
		<path style="fill:#E8945B;" d="M2714.713,757.389c0,0,31.387-81.025,34.162-88.177c2.775-7.153,18.576-118.495,18.576-118.495
			l67.206-26.856c0,0-37.861,143.094-45.25,161.079c-12.21,29.72-58.412,75.64-58.412,75.64c2.961,5.969-0.179,13.718-7.224,18.806
			c-7.044,5.089-4.426,4.346-9.31,8.058c-4.884,3.712-9.429-4.124-9.429-4.124C2695.656,763.948,2714.713,757.389,2714.713,757.389z
			"/>
		<path style="fill:#233862;" d="M2825.514,529.052c0,0,31.34-16.506,76.248-19.802c24.087-1.769,46.335,13.087,53.89,36.027
			c0.437,1.324,0.854,2.696,1.248,4.119c10.55,37.941,4.796,152.801-30.688,182.764c-35.483,29.963-100.697,17.32-100.697,17.32
			V529.052z"/>
		<path style="fill:#2B478B;" d="M2727.684,796.743c0,0,3.805,47.479,8.277,104.553c6.079,77.529,29.219,270.709,29.219,270.709
			s-4.904,7.701,18.906,2.684c0,0,29.179-65.8,35.239-141.487c0.094-1.24,0.188-2.49,0.281-3.739
			c5.638-77.05,14.405-239.296,14.405-239.296L2727.684,796.743z"/>
		<path style="fill:#233862;" d="M2726.385,780.337c0,0,5.104,63.886,9.576,120.959l83.364,131.905
			c0.094-1.24,0.188-2.49,0.281-3.739c5.638-77.05,14.405-239.296,14.405-239.296L2726.385,780.337z"/>
		<path style="fill:#2B478B;" d="M2744.979,768.315l143.288,412.268c0,0,14.984-2.822,18.346-9.446c0,0,4.12-174.352-20.151-216.416
			c-13.716-23.768-23.285-90.437-21.653-112.948c3.197-44.117-9.946-85.19-9.946-85.19L2744.979,768.315z"/>
		<g>
			<path style="fill:#D57912;" d="M2787.5,1205.771h-11.666c-3.907-0.616-6.793-1.747-10.801-2.271
				c-6.087-0.798-8.889,1.696-9.445,2.271c-0.075,0.074-0.108,0.116-0.108,0.116h-49.556c-1.248-1.779-0.051-5.904,1.121-8.938
				c0.791-2.062,2.512-3.625,4.641-4.241c5.254-1.521,15.615-2.876,25.102-11.466c5.339-4.822,25.776-17.736,25.776-17.736
				l0.108-0.024c0.449,0.009,2.586,0.666,11.883,8.515c4.805,4.05,12.995-5.721,12.995-5.721s1.538,1.272,2.687,3.642
				c0.922,1.871,1.596,4.44,1.064,7.608c-0.74,4.465,1.646,12.763,3.55,18.376c1.155,3.4,2.128,5.813,2.128,5.813
				S2797.536,1204.515,2787.5,1205.771z"/>
			<path style="fill:#C1650A;" d="M2787.479,1205.937h-11.616c-3.909-0.615-6.821-1.913-10.829-2.437
				c-6.087-0.798-8.889,1.696-9.445,2.271c-0.075,0.074-0.108,0.116-0.108,0.116h-49.556c-1.248-1.779-0.051-5.904,1.121-8.938
				c1.506-1.339,1.93,5.812,2.761,6.951c0.832,1.139,40.427,0.416,42.714-1.248c2.287-1.662,9.146-4.572,18.708-2.286
				c8.323,1.987,20.588-3.109,23.623-4.465c1.155,3.4,2.128,5.813,2.128,5.813S2797.515,1204.682,2787.479,1205.937z"/>
		</g>
		<g>
			<path style="fill:#D57912;" d="M2906.621,1205.771h-11.666c-3.907-0.616-6.793-1.747-10.801-2.271
				c-6.086-0.798-8.889,1.696-9.445,2.271c-0.075,0.074-0.108,0.116-0.108,0.116h-49.557c-1.247-1.779-0.05-5.904,1.122-8.938
				c0.791-2.062,2.512-3.625,4.641-4.241c5.254-1.521,15.615-2.876,25.103-11.466c5.339-4.822,25.775-17.736,25.775-17.736
				l0.108-0.024c0.449,0.009,2.586,0.666,11.882,8.515c4.807,4.05,12.997-5.721,12.997-5.721s1.537,1.272,2.685,3.642
				c0.923,1.871,1.597,4.44,1.065,7.608c-0.741,4.465,1.646,12.763,3.55,18.376c1.155,3.4,2.129,5.813,2.129,5.813
				S2916.657,1204.515,2906.621,1205.771z"/>
			<path style="fill:#C1650A;" d="M2906.601,1205.937h-11.617c-3.908-0.615-6.821-1.913-10.829-2.437
				c-6.086-0.798-8.889,1.696-9.445,2.271c-0.075,0.074-0.108,0.116-0.108,0.116h-49.557c-1.247-1.779-0.05-5.904,1.122-8.938
				c1.506-1.339,1.93,5.812,2.762,6.951c0.831,1.139,40.427,0.416,42.713-1.248c2.286-1.662,9.146-4.572,18.709-2.286
				c8.323,1.987,20.587-3.109,23.622-4.465c1.155,3.4,2.129,5.813,2.129,5.813S2916.637,1204.682,2906.601,1205.937z"/>
		</g>
		<path style="fill:#FFB27D;" d="M2833.044,522.437c0,0-46.433,22.853-73.27,14.385c0,0,6.604-8.438,18.122-14.774
			c-0.656-3.905-1.184-7.476-1.597-10.655c-1.49-11.503-1.544-18.053-1.544-18.053l28.457-22.939l6.381-5.144
			c-0.184,5.442,0.153,10.487,0.871,15.134c0.055,0.367,0.107,0.734,0.169,1.093
			C2815.258,509.092,2833.044,522.437,2833.044,522.437z"/>
		<path style="fill:#739AF0;" d="M2859.543,765.532c0.138,2.958-5.953,6.207-8.599,7.392c-11.739,5.266-23.007,9.585-34.563,12.649
			c-8.063,2.148-16.272,3.685-24.879,4.51c-24.863,2.553-54.244-3.05-64.326-2.913c-1.069,0-2.01-0.404-2.819-1.069
			c-0.674-0.542-1.208-30.909-0.674-69.21c0-1.476,0-3.096,0.13-4.57v-0.535c0.138-14.921,0.681-30.643,1.354-46.228
			c1.476-34.402,4.158-67.598,8.736-86.011c5.373-21.63,17.732-35.878,29.021-46.356l8.021-7.981
			c0.503-0.501,1.22-0.714,1.918-0.585c8.975,1.653,18.801,1.518,28.225-3.128c10.616-5.235,22.173-10.884,24.053-9.538
			c22.036,16.463,33.004,65.113,32.798,120.42c-0.008,1.743-0.023,3.501-0.046,5.259c-0.1,5.71-0.307,11.488-0.635,17.297
			c-2.4,40.808,0.061,76.181,1.468,96.749C2859.131,757.6,2859.452,762.292,2859.543,765.532z"/>
		<g>
			<path style="fill:#415DA5;" d="M2743.521,692.258l-4.047,1.202c-2.021,0.6-4.162-0.563-4.763-2.582l-0.759-2.556
				c-0.6-2.019,0.563-4.162,2.581-4.762l4.047-1.202c2.02-0.6,4.163,0.563,4.763,2.581l0.759,2.557
				C2746.702,689.516,2745.541,691.658,2743.521,692.258z"/>
			<path style="fill:#CADEFF;" d="M2757.049,689.881l14.34,48.284c0.971,3.269-0.909,6.737-4.178,7.708l-18.323,5.442
				c-3.269,0.971-6.737-0.909-7.708-4.178l-14.339-48.285c-0.971-3.269,0.909-6.736,4.178-7.707l18.323-5.441
				C2752.611,684.732,2756.079,686.612,2757.049,689.881z"/>
			<path style="fill:#86B1FC;" d="M2757.631,691.837l13.758,46.328c0.971,3.269-0.909,6.737-4.178,7.708l-18.323,5.442
				c-3.269,0.971-6.737-0.909-7.708-4.178l-13.476-45.378c2.704-0.911,8.933-2.787,13.412-2.474
				C2745.484,699.588,2753.705,694.479,2757.631,691.837z"/>
			
				<rect x="2732.55" y="699.991" transform="matrix(0.9586 -0.2847 0.2847 0.9586 -90.0504 812.019)" style="fill:#415DA5;" width="31.528" height="31.583"/>
		</g>
		<path style="fill:#4A82D3;" d="M2859.543,765.532c0.138,2.958-5.953,6.207-8.599,7.392c-11.739,5.266-23.007,9.585-34.563,12.649
			c-32.063-103.59,6.33-204.001,6.33-204.001l35.182,56.064c-0.1,5.71-0.307,11.488-0.635,17.297
			c-2.4,40.808,0.061,76.181,1.468,96.749C2859.131,757.6,2859.452,762.292,2859.543,765.532z"/>
		<path style="fill:#739AF0;" d="M2810.223,597.715c11.497-6.813,34.578-19.173,53.646-21.127c4.178-0.428,6.734-4.808,5.051-8.655
			c-6.027-13.768-23.05-42.585-43.779-55.975c-1.946-1.258-3.412-0.164-5.433,0.97c-7.653,4.292-24.124,16.989-25.135,31.957
			c-0.9,13.313,3.663,36.405,6.423,48.83C2801.911,597.841,2806.586,599.87,2810.223,597.715z"/>
		<path style="fill:#E8945B;" d="M2810.863,481.064c0,0-0.076,0.146-0.229,0.42c-1.796,3.219-14.063,23.963-34.334,29.908
			c-1.49-11.503-1.544-18.053-1.544-18.053l28.457-22.939c3.752,4.403,6.313,8.439,7.252,9.99
			C2810.726,480.826,2810.863,481.064,2810.863,481.064z"/>
		<path style="fill:#FFB27D;" d="M2766.545,492.7c0,0,44.326,7.363,48.487-20.311c4.16-27.675,12.685-45.362-15.44-51.234
			c-28.125-5.872-35.225,3.86-38.86,12.759C2757.096,442.815,2755.122,490.071,2766.545,492.7z"/>
		<path style="fill:#2C3A64;" d="M2830.924,416.615c0.405-1.714,1.362-3.786,3.631-4.86c0,0-3.179,0.345-4.892,2.402
			c-0.284-2.645-0.901-6.356-2.298-8.888c0,0,0.07,3.534-0.292,6.502c-19.213-19.402-64.021,1.87-73.22,6.109
			c-16.171,7.454-7.104,21.283,3.242,24.672c10.344,3.389,36.086-7.499,36.442-0.364c0.356,7.134,5.173,14.981,7.849,15.16
			c2.674,0.179,4.636-5.529,8.024-1.784c3.389,3.746-2.497,9.692-2.497,9.692c-3.518,6.43,3.72,16.227,3.72,16.227
			s2.345,1.369,6.446-3.269C2821.053,473.726,2849.954,444.923,2830.924,416.615z"/>
		<g>
			<path style="fill:#233862;" d="M2858.859,662.576l1.373-8.451c-20.547-3.336-37.171-13.209-49.411-29.345
				c-9.239-12.179-15.745-28.136-17.849-43.778c-4.075-30.307,3.9-47.558,24.386-52.74c18.348-4.643,39.552,9.694,39.763,9.84
				l4.854-7.052c-0.993-0.685-24.574-16.689-46.716-11.088c-17.266,4.367-36.618,18.701-30.771,62.182
				c1.349,10.027,5.677,29.572,19.513,47.81C2817.614,647.899,2836.071,658.875,2858.859,662.576z"/>
		</g>
		<path style="fill:#FFB27D;" d="M2750.927,711.879c8.226-2.057,23.919,0.599,27.073,1.169c0,0,56.702-39.773,66.639-49.711
			c7.192-7.19-21.665-39.621-36.697-64.813c0.778-0.114,1.549-0.378,2.283-0.806c11.493-6.814,34.579-19.177,53.642-21.132
			c0.728-0.071,1.405-0.271,2.019-0.557c13.02,28.116,26.438,65.007,29.236,101.897c0,0-47.889,46.747-108.415,54.962
			c0,0-36.162,9.182-41.894,8.8c-5.732-0.383-8.026-8.026-8.79-12.229C2735.258,725.255,2741.755,714.172,2750.927,711.879z"/>
	</g>
	<g>
		<g>
			<path style="fill:#1C468A;" d="M3438.438,1185.998c-3.199,7.264,0.269,15.673,7.746,18.781
				c7.478,3.107,16.133-0.261,19.333-7.525c3.199-7.264-0.268-15.672-7.745-18.78
				C3450.294,1175.365,3441.639,1178.733,3438.438,1185.998z"/>
			<path style="fill:#1C468A;" d="M3332.791,1185.983c-3.199,7.265,0.269,15.673,7.746,18.781c7.479,3.108,16.135-0.26,19.334-7.524
				c3.199-7.264-0.27-15.673-7.746-18.781C3344.647,1175.351,3335.992,1178.72,3332.791,1185.983z"/>
			<path style="fill:#4A82D3;" d="M3468.894,1184.226l-20.942,7.306c-2.117,0.738-4.354,1.105-6.604,1.083l-118.831-1.181
				l-12.974-20.894L3468.894,1184.226z"/>
			<g>
				<path style="fill:#4A82D3;" d="M3401.405,953.443l-33.193-80.16l-0.042-0.154c-0.2-0.718-5.369-17.932-35.28-21.781
					l-0.138-0.021l-24.602-4.505c-3.179-0.815-12.363-2.18-16.57,1.267c-1.864,1.53-2.62,3.924-2.309,7.319
					c0.618,6.723,22.71,58.698,37.406,91.994l-4.706,1.96c-3.774-8.553-36.912-83.839-37.8-93.512
					c-0.465-5.063,0.92-8.956,4.117-11.571c6.873-5.622,19.717-2.63,21.08-2.291l24.263,4.435
					c32.209,4.17,38.791,23.099,39.444,25.273l33.08,79.889L3401.405,953.443z"/>
			</g>
			<path style="fill:#4A82D3;" d="M3337.713,929.708l-64.128,12.454c0,0-18.7,7.389-14.991,39.221
				c3.264,28.01,17.574,185.177,17.574,185.177s2.986,32.705,74.895,23.22L3337.713,929.708z"/>
			<path style="fill:#739AF0;" d="M3302.161,972.941l17.247,176.01c0.702,7.121,3.301,13.661,7.296,19.151
				c7.394,10.176,19.562,16.769,33.208,16.851l59.476,0.358l1.471,0.013l37.249,0.225c3.749,0.023,7.364-0.441,10.791-1.323
				c0.805-0.205,1.596-0.434,2.377-0.685c12.893-4.154,22.814-14.347,26.489-26.887c1.563-5.337,2.001-11.096,1.054-16.996
				l-27.009-168.407c-2.885-17.958-17.936-31.737-36.561-33.469l-10.506-0.976l-2.505-0.229l-0.005-0.002l-2.105-0.194
				l-35.117-3.262l-4.31-0.398l-33.887-3.144c-5.319-0.492-10.463,0.021-15.253,1.36c-0.313,0.09-0.628,0.179-0.94,0.279
				l-1.958,0.65C3311.947,937.907,3300.335,954.297,3302.161,972.941z"/>
			<path style="fill:#6793E7;" d="M3326.704,1168.103c7.394,10.176,19.562,16.769,33.208,16.851l59.476,0.358l1.471,0.013
				l37.249,0.225c3.749,0.023,7.364-0.441,10.791-1.323c0.805-0.205,1.596-0.434,2.377-0.685
				c12.893-4.154,27.759-19.318,27.971-35.405c0,0-125.815-1.599-152.111,2.346
				C3333.569,1152.517,3329.512,1161.73,3326.704,1168.103z"/>
			<g>
				<g>
					<path style="fill:#4A82D3;" d="M3420.128,936.381c0.261,0.156,27.847,16.484,31.474,30.833
						c3.727,14.745,28.632,186.599,28.881,188.333c0.019,0.138,0.703,16.746-13.474,29.118l1.89-0.439
						c0.805-0.205,1.596-0.434,2.377-0.685c13.315-12.842,11.523-27.642,11.431-28.291c-1.024-7.096-25.177-173.704-28.925-188.553
						c-3.289-13.01-22.736-25.979-29.038-29.891l-2.505-0.229l-0.005-0.002L3420.128,936.381z"/>
				</g>
				<g>
					<path style="fill:#4A82D3;" d="M3380.701,932.721c3.973,2.605,19.116,13.791,22.348,34.438
						c3.791,24.215,18.598,200.099,18.746,201.868l0.01,0.129l0.04,0.116c0.028,0.09,2.143,9.583-3.951,16.031l1.494,0.009
						l1.471,0.013c5.834-6.911,3.524-15.4,3.165-16.593c-0.46-5.438-14.995-177.878-18.756-201.897
						c-2.787-17.792-14.063-28.853-20.257-33.715L3380.701,932.721z"/>
				</g>
				<g>
					<path style="fill:#4A82D3;" d="M3328.664,931.869c0.117,0.066,5.846,3.211,10.783,8.654
						c4.934,5.448,10.304,13.833,12.152,25.651c3.789,24.203,15.528,199.501,15.648,201.264l0.006,0.139l0.044,0.124
						c0.027,0.089,0.546,10.815-5.548,17.264l3.747,0.022c4.657-5.893,4.369-16.55,3.979-17.814
						c-0.375-5.604-11.896-177.307-15.657-201.326c-3.538-22.587-18.973-32.944-22.258-34.909c-0.313,0.09-0.628,0.179-0.94,0.279
						L3328.664,931.869z"/>
				</g>
			</g>
		</g>
		<g>
			<path style="fill:#233862;" d="M3227.133,428.303c-7.501-4.59-19.479,0.896-19.479,0.896c4.142-5.821,19.256-3.918,19.256-3.918
				c-30.104-6.405-36.39,12.842-36.908,14.643c-21.837-19.706-56.8,22.302-56.8,22.302l50.171,66.502c0,0,4.576-10.579,10.622-7.276
				c9.426,5.149,27.656-15.689,21.832-43.103c-0.631-2.964-1.388-5.667-2.229-8.155c1.959,0.858,4.181,1.55,6.258,1.55
				c5.486,0,13.771-13.994,14.892-18.697C3235.865,448.343,3234.635,432.893,3227.133,428.303z"/>
			<path style="fill:#466AA5;" d="M3291.605,762.992c-1.107,2.693-5.932,5.085-12.879,6.809c-15.57,3.877-41.825,4.385-60.973-2.708
				c-20.531-7.601-35.424-116.122-41.756-171.741c-2.207-19.4-3.377-32.37-3.377-32.37s11.793-18.463,57.441-12.308
				c45.641,6.154,50.257,21.539,54.357,49.233C3288.527,627.601,3295.189,754.269,3291.605,762.992z"/>
			<path style="fill:#2B478B;" d="M3278.727,769.801c-15.57,3.877-41.825,4.385-60.973-2.708
				c-20.531-7.601-35.424-116.122-41.756-171.741c5.408-19.14,9.701-31.732,9.701-31.732s57.311-6.924,68.465,10.385
				C3264.142,589.483,3276.273,738.498,3278.727,769.801z"/>
			<path style="fill:#D9935C;" d="M3134.673,721.959c-33.849,1.031-82.573-37.948-82.573-37.948l6.669-10.254
				c12.308,8.2,55.903,15.894,55.903,15.894c-3.055-9.863-5.393-18.986-7.132-27.402c-11.831-57.195,3.916-81.904,8.501-87.65
				c0.738-0.932,1.191-1.361,1.191-1.361s0.14,0.399,0.393,1.16c0.563,1.64,1.678,4.947,3.154,9.501
				C3131.788,617.822,3162.959,721.106,3134.673,721.959z"/>
			<path style="fill:#D9935C;" d="M3237.207,776.485c-15.698-35.206-23.208-45.161-23.471-56.237
				c-0.208-8.76,4.111-18.211,12.501-41.387c1.976-5.461,3.339-11.076,4.179-16.753c6.635-44.678-19.201-92.976-35.258-96.266
				c-4.468-1.181-12.042-17.318-11.949-43.32l-2.011,0.396l-33.813,6.695c0,0,0.77,10.642,0.792,20.665
				c0.023,8.354-0.48,16.271-2.373,17.27c-2.435,0.22-3.871,0.365-3.871,0.365s-28.192,39.153-30.563,75.568
				c-2.372,36.415,22.577,52.234-0.188,125.004C3087.939,842.807,3245.879,795.94,3237.207,776.485z"/>
			<path style="fill:#CB7D45;" d="M3147.386,529.613c0,0,0.77,10.642,0.792,20.665c18.921-0.533,28.922-17.793,33.021-27.36
				L3147.386,529.613z"/>
			<path style="fill:#233862;" d="M3184.69,519.237c0,0,9.915-15.667,12.295-29.064c1.699-9.564-3.172-45.017-38.798-39.911
				c0,0-10.348,1.02-20.073,7.589c-7.734,5.225-18.897,16.503-6.416,47.438l3.242,10.451L3184.69,519.237z"/>
			<path style="fill:#D9935C;" d="M3141.067,539.106c0,0,44.767,0.739,44.797-27.147c0.03-27.886,5.829-46.57-22.751-48.222
				c-28.582-1.65-34.146,8.985-36.42,18.29C3124.419,491.332,3129.423,538.194,3141.067,539.106z"/>
			<path style="fill:#233862;" d="M3142.725,463.055c0,0,12.256,32.715,31.066,37.552c18.811,4.837,26.971-0.202,26.971-0.202
				s-14.43-11.463-17.423-31.47C3183.339,468.935,3151.97,447.483,3142.725,463.055z"/>
			<path style="fill:#233862;" d="M3145.762,465.711c0,0-9.153,7.304-11.385,14.405c-2.232,7.101-3.236,21.719-7.496,21.221
				c0,0-9.234-22.235,1.143-34.814C3139.028,453.185,3145.762,465.711,3145.762,465.711z"/>
			<path style="fill:#AA413E;" d="M3197.568,1114.313c-11.262,44.803-28.217,79.15-28.217,79.15l-14.763-1.023
				c0,0,7.239-34.439,6.824-80.974c-0.293-32.532-4.315-70.98-17.17-107.69c-44.173-126.153-37.034-217.967-37.034-217.967
				l83.066,9.717l3.87,0.454c0.346,38.148,1.331,89.943,2.192,130.445c0.762,36.425,1.431,63.712,1.431,63.712
				C3213.738,1024.53,3207.938,1073.08,3197.568,1114.313z"/>
			<path style="fill:#D9935C;" d="M3295.429,813.881l-13.44,4.03c0,0-44.333-73.558-48.363-92.698
				c-1.315-6.23-4.539-18.7-8.301-32.671c-7.785-28.933-17.832-64.334-17.832-64.334l-3.308-14.331l-11.286-48.873
				c0,0,21.609,2.208,34.249,7.493c4.185,1.746,7.377,3.831,8.492,6.277c9.286,20.417,18.556,71.942,25.07,108.698
				c3.632,20.485,6.401,36.387,7.848,39.756C3272.588,736.629,3284.904,788.356,3295.429,813.881z"/>
			<path style="fill:#B64C41;" d="M3245.225,1107.158c-4.777,50.973-25.807,83.934-25.807,83.934l-7.051,5.128
				c0,0-6.675-35.912-11.398-78.638c-4.5-40.61-10.67-83.582-17.646-96.698c-27.703-52.018-36.041-248.391-36.041-248.391
				l84.221-4.178c8.469,14.239,12.162,37.595,13.038,64.15c2.216,67.02-13.538,154.409-15.893,167.048c0,0.008,0,0.016-0.007,0.03
				c-0.186,0.978,0.1,1.94,0.553,2.824C3245.947,1035.539,3248.372,1073.487,3245.225,1107.158z"/>
			<path style="fill:#233862;" d="M3144.061,466.816c0,0,8.732,34.259,32.469,45.23c0,0-23.736-21.049-25.75-43.664
				C3148.764,445.768,3144.061,466.816,3144.061,466.816z"/>
			<path style="fill:#D9935C;" d="M3294.475,811.643c0,0,4.087,9.628,8.342,12.315c4.254,2.686,8.297,9.134,9.18,14.331
				c1.621,9.534-5.687,15.448-11.061,15.448s-10.511-7.327-13.67-24.826c-0.174-0.962-5.273-10.999-5.273-10.999L3294.475,811.643z"
				/>
			<path style="fill:#F1A34F;" d="M3247.764,801.902c0.146,2.839-0.008,5.108-0.522,6.732c-1.792,5.639-7.947,8.208-22.825,6.67
				c-9.093-0.946-13.146-16.187-14.954-29.187c-5.462,18.602-13.108,29.04-22.994,31.232c-14.424,3.208-87.182,12.055-91.943-22.532
				c-5.239-38.04,10.447-105.398,11.308-141.716c-2.138-12.878-2.868-24.055-2.638-33.655c0.607-25.871,8.2-40.372,14.038-46.21
				c1.654-1.27,3.309-2.063,9.947-3.201c3.393-0.576,8.094-1.246,14.754-2.122c0,0,2.719-0.307,2.657-0.207
				c-1.231,2.2-17.71,27.153-16.426,33.569c1.346,6.717,59.788,0.669,63.819-3.022c4.03-3.693,10.408-31.987,10.408-31.987
				s20.693,2.262,30.816,9.624c0,0-0.039,0.047-0.107,0.131c1.223,0.877,2.139,1.808,2.661,2.8
				c10.801,20.563,21.586,72.458,29.171,109.476c-18.385,10.132-34.447,7.115-39.433,5.777
				C3232.017,736.706,3246.794,782.479,3247.764,801.902z"/>
			<path style="fill:#D9935C;" d="M3058.769,673.757c-0.513-1.284-6.924-20.261-11.796-22.824
				c-4.872-2.564-13.848-5.386-15.898-4.359c-2.051,1.025-5.897,15.386,0,22.821c5.898,7.437,21.025,14.616,21.025,14.616
				L3058.769,673.757z"/>
			<path style="fill:#466AA5;" d="M3141.935,567.912c0,0-0.03,0.054-0.092,0.153c-1.985,3.14-33.032,52.766-36.011,85.036
				c-2.138-12.878-2.868-24.055-2.638-33.655c3.993-12.193,13.686-39.279,23.985-49.411
				C3128.473,568.758,3141.935,567.912,3141.935,567.912z"/>
			<g>
				<path style="fill:#F1A34F;" d="M3067.249,673.742l-20.524,6.834c-0.682,0.227-1.418-0.142-1.645-0.822l-13.031-39.137
					c-0.227-0.682,0.142-1.417,0.822-1.644l20.525-6.834c0.681-0.227,1.416,0.142,1.643,0.823l13.032,39.136
					C3068.298,672.779,3067.93,673.515,3067.249,673.742z"/>
				<path style="fill:#D86713;" d="M3061.916,675.518l-18.617,6.199c-1.209,0.402-2.514-0.251-2.915-1.459l-12.397-37.229
					c-0.401-1.208,0.252-2.513,1.459-2.916l18.617-6.198c1.208-0.402,2.514,0.25,2.916,1.459l12.396,37.228
					C3063.776,673.81,3063.124,675.115,3061.916,675.518z"/>
			</g>
			<path style="fill:#D9935C;" d="M3245.225,1107.158c-4.777,50.973-25.807,83.934-25.807,83.934l-7.179,6.538
				c0,0-6.547-37.322-11.271-80.048C3205.946,1117.944,3227.885,1118.743,3245.225,1107.158z"/>
			<path style="fill:#D9935C;" d="M3197.568,1114.313c-11.262,44.803-28.217,79.15-28.217,79.15l-14.763-1.023
				c0,0,7.239-34.439,6.824-80.974C3166.421,1113.989,3176.76,1116.552,3197.568,1114.313z"/>
			<g>
				<path style="fill:#233862;" d="M3177.854,1205.842h-9.426c-3.156-0.496-5.487-1.41-8.726-1.833
					c-4.917-0.646-7.181,1.37-7.631,1.833c-0.06,0.061-0.087,0.095-0.087,0.095h-40.036c-1.007-1.438-0.04-4.77,0.907-7.222
					c0.639-1.666,2.028-2.929,3.748-3.426c4.246-1.229,12.615-2.324,20.28-9.264c4.313-3.896,20.823-14.328,20.823-14.328
					l0.088-0.02c0.363,0.006,2.089,0.537,9.6,6.879c3.882,3.271,10.498-4.622,10.498-4.622s1.244,1.027,2.171,2.942
					c0.745,1.512,1.289,3.587,0.859,6.146c-0.598,3.607,1.33,10.311,2.868,14.845c0.934,2.747,1.72,4.696,1.72,4.696
					S3185.961,1204.828,3177.854,1205.842z"/>
				<path style="fill:#466AA5;" d="M3180.063,1176.877c-2.251,1.585-7,4.709-10.15,5.118c-4.252,0.558-12.206-10.298-12.206-10.298
					l0.088-0.02c0.363,0.006,2.089,0.537,9.6,6.879c3.882,3.271,10.498-4.622,10.498-4.622S3179.137,1174.962,3180.063,1176.877z"/>
				<path style="fill:#466AA5;" d="M3177.854,1205.842h-9.426c-3.156-0.496-5.487-1.41-8.726-1.833
					c-4.917-0.646-7.181,1.37-7.631,1.833c-0.06,0.061-0.087,0.095-0.087,0.095h-40.036c-1.007-1.438-0.04-4.77,0.907-7.222
					c1.216-1.081,1.559,4.695,2.23,5.615c0.672,0.921,32.659,0.336,34.507-1.007c1.848-1.344,7.389-3.694,15.114-1.848
					c6.725,1.605,16.632-2.512,19.084-3.607c0.934,2.747,1.72,4.696,1.72,4.696S3185.961,1204.828,3177.854,1205.842z"/>
			</g>
			<g>
				<path style="fill:#233862;" d="M3228.146,1205.842h-9.425c-3.157-0.496-5.487-1.41-8.726-1.833
					c-4.917-0.646-7.181,1.37-7.632,1.833c-0.06,0.061-0.086,0.095-0.086,0.095h-40.036c-1.008-1.438-0.04-4.77,0.906-7.222
					c0.639-1.666,2.029-2.929,3.748-3.426c4.246-1.229,12.616-2.324,20.28-9.264c4.313-3.896,20.824-14.328,20.824-14.328
					l0.087-0.02c0.363,0.006,2.089,0.537,9.6,6.879c3.883,3.271,10.499-4.622,10.499-4.622s1.242,1.027,2.17,2.942
					c0.745,1.512,1.29,3.587,0.859,6.146c-0.598,3.607,1.33,10.311,2.868,14.845c0.934,2.747,1.72,4.696,1.72,4.696
					S3236.254,1204.828,3228.146,1205.842z"/>
				<path style="fill:#466AA5;" d="M3230.356,1176.877c-2.25,1.585-7,4.709-10.149,5.118c-4.253,0.558-12.206-10.298-12.206-10.298
					l0.087-0.02c0.363,0.006,2.089,0.537,9.6,6.879c3.883,3.271,10.499-4.622,10.499-4.622S3229.429,1174.962,3230.356,1176.877z"/>
				<path style="fill:#466AA5;" d="M3228.146,1205.842h-9.425c-3.157-0.496-5.487-1.41-8.726-1.833
					c-4.917-0.646-7.181,1.37-7.632,1.833c-0.06,0.061-0.086,0.095-0.086,0.095h-40.036c-1.008-1.438-0.04-4.77,0.906-7.222
					c1.216-1.081,1.559,4.695,2.23,5.615c0.672,0.921,32.66,0.336,34.508-1.007c1.847-1.344,7.389-3.694,15.113-1.848
					c6.725,1.605,16.633-2.512,19.084-3.607c0.934,2.747,1.72,4.696,1.72,4.696S3236.254,1204.828,3228.146,1205.842z"/>
			</g>
			<path style="opacity:0.4;fill:#D86713;" d="M3247.764,801.902c-9.992-3.339-22.816-12.216-38.218-32.117
				c-40.771-52.695-3.462-114.622,1.539-115.775c5-1.154,14.416,40.063,14.416,40.063
				C3232.017,736.706,3246.794,782.479,3247.764,801.902z"/>
			<path style="fill:#466AA5;" d="M3224.932,562.466c0,0-41.028,27.95-44.104,87.185c-3.077,59.233,50.259,71.286,50.259,71.286
				l-3.462-18.719c0,0-43.207-15.643-31.925-62.824c11.283-47.183,49.715-74.39,49.715-74.39L3224.932,562.466z"/>
			<path style="fill:#D9935C;" d="M3029.921,648.496c0,0,3.846-7.949,10.897-4.743c7.052,3.205,3.975,15.257-0.128,19.487
				c-4.103,4.232-5.257,6.154-5.257,6.154L3029.921,648.496z"/>
		</g>
	</g>
	<g>
		<path style="fill:#FFB27D;" d="M1904.492,573.236c0,0-14.59,7.87-17.404,17.086c-2.813,9.215-3.517,116.136-8.088,125.632
			c-4.573,9.496-8.911,64.012-1.877,90.273c0,0-5.414,23.331-3.703,27.903c1.71,4.571,15.619,10.2,20.623,9.848
			c5.004-0.352,7.558-29.427,2.061-37.751L1904.492,573.236z"/>
		<path style="fill:#B64C41;" d="M2043.132,531.892c-9.042-7.888-11.202-21.055-11.657-28.701
			c1.791,13.568,14.001,25.537,14.001,25.537c-14.536-17.232,8.911-80.309-27.801-96.253c-24.03-10.437-41.738-3.595-51.106,2.378
			c-20.961-2.84-46.108,27.373-46.108,27.373l50.171,66.502c0,0,3.583-8.273,8.596-7.896c-2.729,10.536-4.332,19.134,0.932,24.542
			c26.118,26.839,15.459,39.857,30.381,44.458C2028.793,595.46,2065.172,551.119,2043.132,531.892z"/>
		<path style="fill:#2B478B;" d="M1914.439,570.035c0,0-16.084,1.014-24.355,10.51s-9.369,86.883-9.369,86.883
			s2.271,8.666,11.884,7.962C1902.213,674.687,1914.439,570.035,1914.439,570.035z"/>
		<path style="fill:#EE9849;" d="M2078.863,762.992c-1.107,2.693-5.932,5.085-12.877,6.809c-15.57,3.877-41.826,4.385-60.973-2.708
			c-20.533-7.601-35.426-116.122-41.757-171.741c-2.208-19.4-3.378-32.37-3.378-32.37s11.795-18.463,57.443-12.308
			c45.641,6.154,50.256,21.539,54.356,49.233C2075.786,627.601,2082.448,754.269,2078.863,762.992z"/>
		<path style="fill:#E58638;" d="M2065.986,769.801c-15.57,3.877-41.826,4.385-60.973-2.708
			c-20.533-7.601-35.426-116.122-41.757-171.741c5.408-19.14,9.7-31.732,9.7-31.732s57.312-6.924,68.466,10.385
			C2051.4,589.483,2063.531,738.498,2065.986,769.801z"/>
		<path style="fill:#FFB27D;" d="M2024.467,776.485c-15.699-35.206-23.209-45.161-23.471-56.237
			c-0.209-8.76,4.11-18.211,12.5-41.387c1.976-5.461,3.339-11.076,4.179-16.753c6.636-44.678-19.2-92.976-35.259-96.266
			c-4.467-1.181-12.041-17.318-11.948-43.32l-2.011,0.396l-33.813,6.695c0,0,0.77,10.642,0.792,20.665
			c0.022,8.354-0.481,16.271-2.373,17.27c-2.435,0.22-3.87,0.365-3.87,0.365s-28.193,39.153-30.564,75.568
			c-2.371,36.415,22.577,52.234-0.188,125.004C1875.198,842.807,2033.139,795.94,2024.467,776.485z"/>
		<path style="fill:#E8945B;" d="M1934.645,529.613c0,0,0.77,10.642,0.792,20.665c18.921-0.533,28.923-17.793,33.021-27.36
			L1934.645,529.613z"/>
		<path style="fill:#B64C41;" d="M1971.949,519.237c0,0,9.916-15.667,12.295-29.064c1.699-9.564-3.172-45.017-38.797-39.911
			c0,0-10.348,1.02-20.074,7.589c-7.734,5.225-18.897,16.503-6.416,47.438l3.242,10.451L1971.949,519.237z"/>
		<path style="fill:#FFB27D;" d="M1928.326,539.106c0,0,44.766,0.739,44.797-27.147c0.031-27.886,5.83-46.57-22.752-48.222
			c-28.58-1.65-34.145,8.985-36.42,18.29C1911.678,491.332,1916.682,538.194,1928.326,539.106z"/>
		<path style="fill:#B64C41;" d="M1929.982,463.055c0,0,12.258,32.715,31.068,37.552c18.81,4.837,26.969-0.202,26.969-0.202
			s-14.428-11.463-17.422-31.47C1970.598,468.935,1939.229,447.483,1929.982,463.055z"/>
		<path style="fill:#B64C41;" d="M1933.021,465.711c0,0-9.154,7.304-11.386,14.405c-2.232,7.101-3.236,21.719-7.497,21.221
			c0,0-9.233-22.235,1.144-34.814C1926.287,453.185,1933.021,465.711,1933.021,465.711z"/>
		<path style="fill:#E58638;" d="M1984.828,1114.313c-11.263,44.803-28.218,79.15-28.218,79.15l-14.763-1.023
			c0,0,7.239-34.439,6.824-80.974c-0.293-32.532-4.316-70.98-17.17-107.69c-44.173-126.153-37.033-217.967-37.033-217.967
			l83.066,9.717l3.869,0.454c0.346,38.148,1.331,89.943,2.192,130.445c0.762,36.425,1.431,63.712,1.431,63.712
			C2000.998,1024.53,1995.197,1073.08,1984.828,1114.313z"/>
		<path style="fill:#CB7D45;" d="M2013.496,678.861c-8.39,23.176-12.709,32.627-12.5,41.387
			c-26.743-41.406-75.047-47.653-75.047-47.653l91.726-10.486C2016.835,667.785,2015.472,673.4,2013.496,678.861z"/>
		<path style="fill:#FFB27D;" d="M2082.688,813.881l-13.44,4.03c0,0-44.333-73.558-48.363-92.698
			c-1.315-6.23-4.539-18.7-8.301-32.671c-7.785-28.933-17.832-64.334-17.832-64.334l-3.308-14.331l-11.285-48.873
			c0,0,21.608,2.208,34.248,7.493c4.185,1.746,7.377,3.831,8.492,6.277c9.285,20.417,18.555,71.942,25.071,108.698
			c3.631,20.485,6.4,36.387,7.847,39.756C2059.847,736.629,2072.163,788.356,2082.688,813.881z"/>
		<path style="fill:#EE9849;" d="M2032.484,1107.158c-4.777,50.973-25.807,83.934-25.807,83.934l-7.052,5.128
			c0,0-6.675-35.912-11.398-78.638c-4.5-40.61-10.67-83.582-17.647-96.698c-27.701-52.018-36.04-248.391-36.04-248.391l84.221-4.178
			c8.47,14.239,12.161,37.595,13.039,64.15c2.215,67.02-13.54,154.409-15.894,167.048c0,0.008,0,0.016-0.008,0.03
			c-0.185,0.978,0.1,1.94,0.554,2.824C2033.207,1035.539,2035.631,1073.487,2032.484,1107.158z"/>
		<path style="fill:#B64C41;" d="M1931.32,466.816c0,0,8.732,34.259,32.467,45.23c0,0-23.734-21.049-25.749-43.664
			C1936.022,445.768,1931.32,466.816,1931.32,466.816z"/>
		<path style="fill:#2B478B;" d="M2035.023,801.902c0.146,2.839-0.009,5.108-0.523,6.732c-1.793,5.639-7.947,8.208-22.825,6.67
			c-9.092-0.946-13.147-16.187-14.954-29.187c-5.462,18.602-13.109,29.04-22.994,31.232c-14.424,3.208-87.182,12.055-91.943-22.532
			c-5.238-38.04,10.447-105.398,11.309-141.716c-2.139-12.878-2.869-24.055-2.639-33.655c0.607-25.871,8.199-40.372,14.039-46.21
			c1.654-1.27,3.308-2.063,9.947-3.201c3.392-0.576,8.092-1.246,14.754-2.122c0,0,2.718-0.307,2.656-0.207
			c-1.23,2.2-17.711,27.153-16.426,33.569c1.346,6.717,59.787,0.669,63.818-3.022c4.031-3.693,10.408-31.987,10.408-31.987
			s22.636,0.563,32.759,7.926c0,0,2.92,3.686,3.442,4.678c10.801,20.563,18.756,72.409,26.342,109.427
			c-18.386,10.132-34.449,7.115-39.434,5.777C2019.275,736.706,2034.053,782.479,2035.023,801.902z"/>
		<path style="fill:#E58638;" d="M1929.193,567.912c0,0-0.031,0.054-0.092,0.153c-1.985,3.14-33.033,52.766-36.01,85.036
			c-2.139-12.878-2.869-24.055-2.639-33.655c3.992-12.193,13.686-39.279,23.986-49.411
			C1915.731,568.758,1929.193,567.912,1929.193,567.912z"/>
		<path style="fill:#FFB27D;" d="M2032.484,1107.158c-4.777,50.973-25.807,83.934-25.807,83.934l-7.18,6.538
			c0,0-6.547-37.322-11.271-80.048C1993.205,1117.944,2015.145,1118.743,2032.484,1107.158z"/>
		<path style="fill:#FFB27D;" d="M1984.828,1114.313c-11.263,44.803-28.218,79.15-28.218,79.15l-14.763-1.023
			c0,0,7.239-34.439,6.824-80.974C1953.68,1113.989,1964.019,1116.552,1984.828,1114.313z"/>
		<g>
			<path style="fill:#233862;" d="M1965.111,1205.842h-9.424c-3.158-0.496-5.488-1.41-8.727-1.833
				c-4.917-0.646-7.181,1.37-7.631,1.833c-0.061,0.061-0.087,0.095-0.087,0.095h-40.036c-1.007-1.438-0.04-4.77,0.906-7.222
				c0.64-1.666,2.029-2.929,3.749-3.426c4.245-1.229,12.615-2.324,20.28-9.264c4.313-3.896,20.823-14.328,20.823-14.328l0.088-0.02
				c0.362,0.006,2.089,0.537,9.599,6.879c3.883,3.271,10.5-4.622,10.5-4.622s1.242,1.027,2.17,2.942
				c0.745,1.512,1.289,3.587,0.859,6.146c-0.598,3.607,1.33,10.311,2.868,14.845c0.934,2.747,1.72,4.696,1.72,4.696
				S1973.22,1204.828,1965.111,1205.842z"/>
			<path style="fill:#466AA5;" d="M1967.322,1176.877c-2.251,1.585-7,4.709-10.15,5.118c-4.252,0.558-12.206-10.298-12.206-10.298
				l0.088-0.02c0.362,0.006,2.089,0.537,9.599,6.879c3.883,3.271,10.5-4.622,10.5-4.622S1966.395,1174.962,1967.322,1176.877z"/>
			<path style="fill:#466AA5;" d="M1965.111,1205.842h-9.424c-3.158-0.496-5.488-1.41-8.727-1.833
				c-4.917-0.646-7.181,1.37-7.631,1.833c-0.061,0.061-0.087,0.095-0.087,0.095h-40.036c-1.007-1.438-0.04-4.77,0.906-7.222
				c1.217-1.081,1.559,4.695,2.231,5.615c0.671,0.921,32.659,0.336,34.507-1.007c1.848-1.344,7.389-3.694,15.114-1.848
				c6.724,1.605,16.632-2.512,19.084-3.607c0.934,2.747,1.72,4.696,1.72,4.696S1973.22,1204.828,1965.111,1205.842z"/>
		</g>
		<g>
			<path style="fill:#233862;" d="M2015.405,1205.842h-9.425c-3.157-0.496-5.488-1.41-8.727-1.833
				c-4.916-0.646-7.18,1.37-7.631,1.833c-0.061,0.061-0.086,0.095-0.086,0.095h-40.036c-1.008-1.438-0.04-4.77,0.906-7.222
				c0.638-1.666,2.028-2.929,3.749-3.426c4.245-1.229,12.615-2.324,20.279-9.264c4.313-3.896,20.824-14.328,20.824-14.328
				l0.088-0.02c0.362,0.006,2.089,0.537,9.599,6.879c3.883,3.271,10.499-4.622,10.499-4.622s1.242,1.027,2.17,2.942
				c0.746,1.512,1.289,3.587,0.859,6.146c-0.598,3.607,1.33,10.311,2.869,14.845c0.934,2.747,1.719,4.696,1.719,4.696
				S2023.513,1204.828,2015.405,1205.842z"/>
			<path style="fill:#466AA5;" d="M2017.615,1176.877c-2.25,1.585-7,4.709-10.15,5.118c-4.252,0.558-12.205-10.298-12.205-10.298
				l0.088-0.02c0.362,0.006,2.089,0.537,9.599,6.879c3.883,3.271,10.499-4.622,10.499-4.622S2016.688,1174.962,2017.615,1176.877z"
				/>
			<path style="fill:#466AA5;" d="M2015.405,1205.842h-9.425c-3.157-0.496-5.488-1.41-8.727-1.833
				c-4.916-0.646-7.18,1.37-7.631,1.833c-0.061,0.061-0.086,0.095-0.086,0.095h-40.036c-1.008-1.438-0.04-4.77,0.906-7.222
				c1.216-1.081,1.559,4.695,2.23,5.615c0.672,0.921,32.66,0.336,34.508-1.007c1.847-1.344,7.389-3.694,15.114-1.848
				c6.723,1.605,16.632-2.512,19.084-3.607c0.934,2.747,1.719,4.696,1.719,4.696S2023.513,1204.828,2015.405,1205.842z"/>
		</g>
		<path style="fill:#233862;" d="M2035.023,801.902c-9.994-3.339-22.818-12.216-38.219-32.117
			c-40.771-52.695-3.462-114.622,1.539-115.775c5-1.154,14.416,40.063,14.416,40.063
			C2019.275,736.706,2034.053,782.479,2035.023,801.902z"/>
		<path style="fill:#E58638;" d="M2006.978,565.004c0,0-35.815,25.412-38.892,84.646c-3.078,59.233,50.259,71.286,50.259,71.286
			l-3.462-18.719c0,0-43.207-15.643-31.924-62.824c11.281-47.183,43.76-71.482,43.76-71.482L2006.978,565.004z"/>
		<path style="fill:#163560;" d="M2023.285,865.799l-37.651,6.421c0,0-8.04,2.762-7.159,28.404
			c0.48,14.028,0.014,34.251-0.51,49.693c-0.39,11.509,9.895,20.453,21.247,18.518l23.779-4.055
			c2.289-0.391,3.935-2.417,3.847-4.737L2023.285,865.799z"/>
		<path style="fill:#1C468A;" d="M2218.249,915.715c-1.087-4.853-3.024-11.17-6.263-19.382c-0.647-1.651-1.189-3.438-1.632-5.318
			c-2.217-9.17-2.447-20.518-4.544-29.32c0,0-2.317-28.95-39.956-20.1c-8.674,2.041-19.031,4.25-30.159,6.465
			c-8.787-5.24-29.258-15.539-48.293-11.105c-16.438,3.828-26.523,16.356-31.592,24.711c-9.426,1.275-17.547,2.188-23.517,2.579
			c-26.616,1.745-29.093,23.093-25.726,35.659c0.539,2.02,0.996,5.125,1.398,8.92c2.081,19.861-5.938,45.368,4.907,57.653
			c2.522,2.857,151.139-25.872,193.081-32.924C2214.359,932.139,2220.111,924.031,2218.249,915.715z M2088.927,843.495
			c12.772-2.979,26.882,1.998,36.332,6.599c-20.272,3.876-42.067,7.608-60.427,10.298
			C2069.85,853.699,2077.755,846.097,2088.927,843.495z"/>
		<path style="fill:#FFB27D;" d="M2081.733,811.643c0,0,4.087,9.628,8.342,12.315c4.255,2.686,11.198,13.749,9.403,18.705
			c-0.924,2.55-8.317,10.316-16.791,9.509c-5.35-0.511-8.959-24.407-10.525-28.886c-1.568-4.478-2.911-5.374-2.911-5.374
			L2081.733,811.643z"/>
	</g>
	<g>
		<g>
			<g>
				<path style="fill:#163560;" d="M2199.243,1095.634h-43.6c0,0-9.577,1.564-13.507,30.59
					c-3.93,29.023-15.401,80.733-15.401,80.733h57.817L2199.243,1095.634z"/>
				<path style="fill:#1C468A;" d="M2169.758,1206.954c5.048-0.581,234.938,0,234.938,0s9.297-1.304,1.028-40.754
					c-0.413-1.983-0.679-4.097-0.816-6.298c-0.733-10.745,1.184-23.56,0.514-33.865c0,0,2.946-33.022-41.104-30.284
					c-44.052,2.738-124.353,3.001-154.637-0.142c-30.285-3.145-37.169,20.404-35.791,35.189c0.22,2.377,0.137,5.959-0.139,10.307
					C2172.282,1163.855,2165.519,1207.436,2169.758,1206.954z"/>
			</g>
			<g>
				<path style="fill:#1C468A;" d="M2237.941,1109.214c0.146-0.24,15.229-24.585,40.211-26.083
					c25.264-1.523,50.477,23.278,50.728,23.528l5.419-5.423c-1.122-1.123-27.863-27.483-56.607-25.76
					c-29.057,1.744-45.623,28.63-46.313,29.773L2237.941,1109.214z"/>
			</g>
		</g>
		<g>
			<path style="fill:#AA413E;" d="M2437.498,1048.047c0.215-8.242-3.88-15.911-10.787-20.414
				c-11.203-7.304-30.298-15.924-56.553-14.257c-44.315,2.814-54.163,27.434-55.57,46.426
				c-1.407,18.993-16.179,46.427-19.696,67.529c-3.517,21.103-9.394,74.786,21.997,79c31.389,4.214,136.596,0,136.596,0
				s24.511-28.73,0-83.924C2438.944,1089.667,2437.124,1062.421,2437.498,1048.047z"/>
			<g>
				<g>
					<path style="fill:#B64C41;" d="M2458.906,1048.047c0.214-8.242-3.88-15.911-10.787-20.414
						c-11.203-7.304-30.298-15.924-56.553-14.257c-44.316,2.814-54.164,27.434-55.57,46.426
						c-1.407,18.993-16.179,46.427-19.696,67.529c-3.517,21.103-9.394,74.786,21.996,79s136.28,0.627,136.28,0.627
						s24.827-29.357,0.315-84.551C2460.353,1089.667,2458.532,1062.421,2458.906,1048.047z"/>
					<path style="fill:#AA413E;" d="M2332.244,1135.068h62.84c0,0,4.221,45.957-25.793,47.364
						C2339.278,1183.84,2331.307,1164.612,2332.244,1135.068z"/>
					<path style="fill:#B64C41;" d="M2332.244,1135.068c0,0,10.786,16.413,30.482,15.944c19.695-0.469,32.357-15.944,32.357-15.944
						H2332.244z"/>
					<path style="fill:#AA413E;" d="M2407.838,1135.068h62.84c0,0,4.221,45.957-25.792,47.364S2406.9,1164.612,2407.838,1135.068z"
						/>
					<path style="fill:#B64C41;" d="M2407.838,1135.068c0,0,10.786,16.413,30.482,15.944c19.695-0.469,32.357-15.944,32.357-15.944
						H2407.838z"/>
					<path style="fill:#AA413E;" d="M2417.241,1099.545h-33.412c-15.476,0-28.138-12.661-28.138-28.136v-0.001
						c0-15.475,12.662-28.137,28.138-28.137h33.412c15.476,0,28.138,12.662,28.138,28.137v0.001
						C2445.379,1086.884,2432.717,1099.545,2417.241,1099.545z"/>
					<path style="fill:#B64C41;" d="M2358.271,1040.979c0,0,14.95,22.752,42.254,22.102c27.302-0.65,44.854-22.102,44.854-22.102
						H2358.271z"/>
				</g>
				<g>
					<path style="fill:#B64C41;" d="M2423.902,1019.662l-8.397-0.856c0-0.011,0.341-4.528-2.627-7.925
						c-2.286-2.604-6.077-4.066-11.266-4.309c-4.913-0.241-8.815,0.836-11.332,3.221c-3.55,3.352-3.638,8.452-3.638,8.507
						l-8.441,0.033c0-0.352,0.012-8.66,6.177-14.574c4.243-4.089,10.188-5.836,17.642-5.627c7.639,0.374,13.463,2.835,17.32,7.319
						C2424.66,1011.64,2423.935,1019.344,2423.902,1019.662z"/>
				</g>
			</g>
		</g>
		<g>
			<path style="fill:#163560;" d="M2568.715,1173.639c0,0-2.032,32.786-8.375,33.257c-0.845,0.063-32.174,0.063-32.174,0.063
				h-40.442c0,0,0.712-9.868,12.402-11.905c11.689-2.038,31.257-10.254,38.338-25.704
				C2545.914,1153.094,2568.715,1173.639,2568.715,1173.639z"/>
			<path style="fill:#EE9849;" d="M2571.021,1175.914c0,0-12.158,4.068-21.649,4.068c-10.588,0-20.211-2.885-20.211-2.885
				s-2.289-22.135-14.885-70.907c-6.604-25.563-16.034-58.432-29.451-99.273c-37.097-112.876-48.377-178.909-49.406-185.163
				c-0.056-0.328-0.078-0.492-0.078-0.492l0.121-0.055l114.049-50.075c0,0-14.096,155.569,3.888,215.282
				c2.52,8.346,4.677,18.072,6.527,28.608C2571.283,1079.883,2571.021,1175.914,2571.021,1175.914z"/>
			<path style="fill:#E58638;" d="M2559.925,1015.023l-45.649,91.168c-6.604-25.563-16.034-58.432-29.451-99.273
				c-37.097-112.876-48.377-178.909-49.406-185.163c0.01-0.185,0.021-0.361,0.043-0.547l114.049-50.075
				c0,0-14.096,155.569,3.888,215.282C2555.917,994.76,2558.074,1004.486,2559.925,1015.023z"/>
			<path style="fill:#163560;" d="M2479.637,1173.639c0,0-2.032,32.786-8.375,33.257c-0.844,0.063-72.958,1.309-72.958,1.309
				s1.054-11.114,12.744-13.151c11.69-2.038,31.257-10.254,38.339-25.704C2456.836,1153.094,2479.637,1173.639,2479.637,1173.639z"
				/>
			<path style="fill:#EE9849;" d="M2414.977,774.798c0,0-1.482,100.81,15.961,224.588c17.441,123.777,11.529,176.319,11.529,176.319
				s11.982,3.883,16.819,4.277c12.322,1.003,24.956-2.889,24.956-2.889s24.965-123.823,17.807-185.777
				c-7.158-61.953,34.187-212.59,34.187-212.59L2414.977,774.798z"/>
			<path style="fill:#963333;" d="M2506.026,534.933c0,0,58.897,59.802,61.765,83.058c2.867,23.257-28.424,59.638-28.424,59.638
				L2506.026,534.933z"/>
			<path style="fill:#FFB27D;" d="M2495.846,538.888l-22.258,14.594l-32.167-5.995c0.445-2.598,2.569-13.359,4.503-23.108
				c0.116-0.574,0.233-1.149,0.343-1.712c1.656-8.294,3.087-15.419,3.087-15.419l30.044-13.256l11.201-4.942
				c-0.028,0.175-0.868,9.205-0.984,10.523C2487.513,522.983,2495.846,538.888,2495.846,538.888z"/>
			<path style="fill:#963333;" d="M2444.467,531.734c0.625-0.262,43.929-11.719,48.069-10.353c4.141,1.367,6.591,9.378,6.591,9.378
				l-62.338,14.094C2436.789,544.854,2436.504,535.088,2444.467,531.734z"/>
			<path style="fill:#B64C41;" d="M2552.287,787.243c-6.46,29.47-113.975,32.965-141.688,6.214
				c-3.152-3.049-3.308-17.235-2.119-36.363c2.325-37.371,9.793-93.586,10.084-122.307c0.143-13.87,2.049-28.057,4.587-40.938
				c5.4-27.455,13.638-49,13.638-49s52.513-16.977,62.338-14.088C2546.467,544.669,2558.747,757.773,2552.287,787.243z"/>
			<path style="fill:#963333;" d="M2408.48,757.094c2.325-37.371,9.793-93.586,10.084-122.307
				c0.143-13.87,2.049-28.057,4.587-40.938l31.59-5.575C2454.741,588.274,2485.626,714.426,2408.48,757.094z"/>
			<path style="fill:#FFB27D;" d="M2425.587,705.004c0,0,2.153,5.148-2.368,8.604c-4.522,3.455-7.455,9.053-6.42,13.146
				c1.036,4.091,10.955,10.766,14.394,9.689c3.438-1.077,9.668-3.857,9.683-8.624c0.008-2.285,4.708-18.94-3.676-25.398
				C2428.816,695.959,2425.587,705.004,2425.587,705.004z"/>
			<path style="fill:#B64C41;" d="M2461.013,538.716c0,0-30.91,4.339-55.459,40.515c-24.548,36.176-40.697,63.072-36.176,76.11
				c4.522,13.038,45.741,58.258,52.847,58.258c7.106,0,18.574-5.168,19.221-16.796c0,0-27.496-43.608-21.779-50.123
				c2.443-2.783,36.151-31.273,41.182-18.354C2469.17,649.703,2461.013,538.716,2461.013,538.716z"/>
			<path style="fill:#FCA56B;" d="M2487.359,499.986c-6.598,11.175-31.183,20.839-41.436,24.392
				c0.116-0.574,0.233-1.149,0.343-1.712c1.656-8.294,3.087-15.419,3.087-15.419l30.044-13.256
				C2486.038,493.9,2490.081,495.387,2487.359,499.986z"/>
			<path style="fill:#FFB27D;" d="M2438.029,505.419c0,0,48.395,15.097,57.332-15.186c8.938-30.282,21.203-48.728-9.318-59.647
				c-30.521-10.92-39.962-1.145-45.403,8.238C2435.197,448.206,2425.671,500.713,2438.029,505.419z"/>
			<path style="fill:#163560;" d="M2442.54,435.906c0,0,3.087,35.239,10.374,33.709c7.287-1.529,13.896-2.663,12.83,7.959
				c-1.066,10.623-11.173,22.889,11.287,24.768c22.459,1.88,54.746-56.041,48.576-67.008
				C2507.805,403.691,2416.81,397.306,2442.54,435.906z"/>
		</g>
	</g>
	<g>
		<path style="fill:#233862;" d="M1318.287,784.477c0,0,35.938-16.358,63.126-2.048c27.189,14.311,10.567,132.424-28.313,143.872
			l0,0C1353.101,926.301,1269.633,1027.754,1318.287,784.477z"/>
		<path style="fill:#A05F32;" d="M1254.653,798.159c-1.771-13.817,1.673-38.865,1.673-38.865s-12.207-0.63-19.042,15.46
			c-14.167,33.346-8.015,105.324-7.155,115.628c0,0-4.865,20.464,2.363,55.855c-1.065,2.518-2.507,5.771-3.365,7.078
			c-0.129,0.146-0.246,0.298-0.353,0.457l0,0c-0.878,1.327-0.962,3.104-0.06,4.531l4.68,7.418c0.443,0.701,1.065,1.222,1.77,1.547
			l0,0l0,0c0.233,0.108,0.476,0.193,0.725,0.257l5.797,1.37l0.572-19.752c-0.01-0.016-0.035-0.016-0.066-0.009
			C1244.188,929.705,1256.279,810.842,1254.653,798.159z M1239.679,950.582l-0.122-0.161l0.246,0.146
			C1239.741,950.591,1239.694,950.6,1239.679,950.582z"/>
		<path style="fill:#233862;" d="M1358.141,1189.266l-4.619,16.671h-39.021C1314.501,1205.937,1302.884,1184.623,1358.141,1189.266z
			"/>
		<path style="fill:#233862;" d="M1274.466,1189.266l-4.618,16.671h-39.021C1230.826,1205.937,1219.209,1184.623,1274.466,1189.266z
			"/>
		<path style="fill:#2B478B;" d="M1350.551,686.565c2.55-11.054-0.594-19.217-5.668-27.074c-4.866-7.537-11.701-7.863-18.271-14.246
			c-6.185-6.011-17.712-9.961-26.887-9.961c-29.36,0-54.786,17.975-48.99,48.456c1.842,9.685,0.286,17.315,8.137,28.637
			c9.798,14.13,21.712,25.471,40.854,25.471c10.155,0,19.056-2.343,26.887-9.745c4.266-4.031,10.381-4.527,14.136-8.916
			C1348.332,710.32,1347.767,698.639,1350.551,686.565z"/>
		<path style="fill:#A05F32;" d="M1279.356,722.663c0,0,6.44,24.9-6.583,35.49l36.598,18.704l4.819-24.209
			c0,0-6.911-18.912-5.016-45.251L1279.356,722.663z"/>
		<path style="fill:#AF7041;" d="M1278.415,735.202c0,0,37.458,4.565,38.258-21.824c0.798-26.39-14.814-43.483-25.234-43.288
			c-20.78,0.389-24.208,8.786-26.618,17.53C1262.411,696.363,1261.172,733.342,1278.415,735.202z"/>
		<path style="fill:#233862;" d="M1242.678,934.646l74.023,6.119c0,0,8.694,129.828-39.944,250.182l-41.477-0.788L1242.678,934.646z
			"/>
		<path style="fill:#2B478B;" d="M1357.549,942.106c0,0,22.775,88.477,4.307,249.951l-50.243,0.012l-24.099-209.638
			c-0.92-6.209-12.594-14.854-12.594-14.854l-0.454-23.956L1357.549,942.106z"/>
		<path style="fill:#F1A34F;" d="M1359.229,810.891l4.843-39.757c-0.734-1.027-1.322-1.907-2.056-2.788
			c-8.507-10.416-41.224-14.963-47.825-15.697c-0.046,0.076-0.291,0.571-1.224,1.554c-6.014,5.429-14.182,11.21-25.037,9.742
			c-9.242-1.173-10.752-6.015-10.459-11.296c-19.365,3.228-30.377,9.32-30.377,9.32c-19.729,7.394-23.693,72.939-23.693,72.939
			c2.619-0.781,15.714,1.513,21.79,2.646l-2.446,97.157c47.092,20.539,114.871,7.336,114.871,7.336l-0.146-0.587l-4.548-77.755
			l4.255-35.504L1359.229,810.891z"/>
		<path style="fill:#FFFFFF;" d="M1288.434,719.992c0,0-0.815,3.291-9.02,2.685c0,0-6.887-0.508-6.633-4.132
			C1272.781,718.545,1279.494,716.044,1288.434,719.992z"/>
		<path style="opacity:0.4;fill:#D86713;" d="M1329.043,938.894c3.202,4.009,18.984,5.418,28.463,2.515l-4.619-77.646l6.354-52.813
			l-6.139-2.851c0,0-26.953,21.62-23.802,38.854C1332.451,864.193,1324.921,933.742,1329.043,938.894z"/>
		<path style="fill:#F1A34F;" d="M1386.957,814.852c0,0-20.833,7.775-29.781,13.35c-1.762,1.027-2.935,1.908-3.667,2.788
			l-28.462-56.629l-5.429-10.709l-4.989-10.123l-0.438-0.881c0,0,0.394,0.026,1.173,0.147c2.787,0.293,9.684,1.174,17.604,2.934
			c4.99,1.174,10.418,2.495,15.26,4.402h0.146c5.869,2.2,10.856,4.987,13.644,8.215c0.734,0.881,1.321,1.761,2.056,2.788
			C1373.605,784.777,1386.957,814.852,1386.957,814.852z"/>
		<path style="fill:#2B478B;" d="M1356.296,920.041c0,0-101.376-108.416-36.678-156.389c3.814-2.935,8.218-5.576,13.349-7.924
			c4.99,1.174,10.418,2.495,15.26,4.402c-5.282,1.467-15.26,5.281-23.18,14.23c-15.697,17.457-23.033,54.575,30.367,131.89
			L1356.296,920.041z"/>
		<path style="fill:#2B478B;" d="M1282.166,670.335c0,0,32.011-0.02,24.655,21.957c-4.636,13.852,10.78,16.005,10.78,16.005
			l7.418-22.201l-4.646-17.296L1282.166,670.335z"/>
		<path style="fill:#A05F32;" d="M1386.023,815.059c-9.893,3.056-24.832,9.704-29.379,14.175c5.03,11.566,7.859,19.219,7.859,19.219
			c-3.781-1.681-23.339-3.268-33.477-3.994c-1.15-0.085-10.421-3.125-10.421-3.125s-0.077-15.831-18.185-17.083
			c0,0-7.541,0.045-5.994,5.194c1.547,5.148,1.709,2.913,3.729,10.228s7.279,12.877,12.88,13.21
			c26.884,22.605,63.9,22.788,75.059,22.269c1.989-0.093,3.693-1.482,4.14-3.422C1396.468,853.36,1393.568,834.307,1386.023,815.059
			z"/>
	</g>
	<path style="fill:#2E3552;" d="M3558.19,1212.465H192.322c-1.795,0-3.264-1.469-3.264-3.264l0,0c0-1.796,1.469-3.265,3.264-3.265
		H3558.19c1.795,0,3.265,1.469,3.265,3.265l0,0C3561.455,1210.996,3559.985,1212.465,3558.19,1212.465z"/>
</g>
</svg>
